<?xml version="1.0"?>
<svg width="750" height="300" xmlns="http://www.w3.org/2000/svg" xmlns:svg="http://www.w3.org/2000/svg">
 <g class="layer">
  <title>Layer 1</title>
  <path d="m2.381218,216.615238l748.618787,-113.11523l0,197.999993l-750.000002,0l1.381215,-84.884763z" fill="#f9f4ea" id="svg_3" stroke="#000000" stroke-dasharray="null" stroke-linecap="null" stroke-linejoin="null" stroke-opacity="0" stroke-width="null"/>
  <g id="BACKGROUND"/>
  <g id="svg_1">
   <path d="m623,300.642881c-63.833,0 -127.667,0 -191.5,0c0.109,-1.4 0.038,-2.844 0.365,-4.191c0.775,-3.196 1.715,-6.353 2.636,-9.511c0.602,-2.062 1.084,-4.195 1.979,-6.129c2.321,-5.011 3.543,-10.485 6.466,-15.235c0.126,-0.205 0.181,-0.471 0.207,-0.716c0.161,-1.56 1.197,-2.67 1.938,-3.947c1.587,-2.735 3.482,-5.229 5.48,-7.668c1.135,-1.386 2.09,-2.918 3.127,-4.385c0.878,0.766 1.792,1.494 2.627,2.303c3.598,3.486 7.44,6.677 11.787,9.17c6.411,3.678 13.171,5.353 20.6,3.493c4.237,-1.061 8.191,-2.676 12.041,-4.69c7.177,-3.755 13.324,-8.74 18.465,-14.989c0.938,-1.14 1.95,-2.218 2.932,-3.33c1.704,0.772 3.2,1.503 4.737,2.135c5.842,2.405 11.935,3.647 18.246,3.4c5.454,-0.214 10.695,-1.651 15.701,-3.762c10.855,-4.578 21.031,-10.344 30.219,-17.776c0.768,-0.622 1.628,-1.13 2.446,-1.692c2.325,-0.514 4.693,-0.884 6.966,-1.569c6.536,-1.969 12.432,-5.303 18.194,-8.877c2.296,-1.424 4.526,-2.953 6.786,-4.435c2.576,-0.065 5.17,-0.355 7.723,-0.145c4.5,0.369 8.904,1.307 12.737,3.908c2.238,1.519 3.939,3.496 4.736,6.04c-0.14,0.221 -0.167,0.323 -0.227,0.349c-1.063,0.465 -2.143,0.893 -3.194,1.383c-6.055,2.821 -10.479,7.337 -13.259,13.349c-2.424,5.241 -1.382,10.402 1.047,15.386c1.19,2.441 3.62,3.714 6.339,3.293c4.946,-0.766 8.461,-3.775 11.243,-7.64c3.751,-5.209 4.589,-11.135 3.601,-17.373c-0.335,-2.116 -0.785,-4.215 -1.232,-6.582c4.976,-0.537 9.83,-1.131 14.698,-1.569c6.83,-0.614 13.517,-1.964 19.931,-4.322c7.326,-2.694 14.531,-5.719 21.76,-8.672c7.81,-3.19 14.893,-7.747 22.164,-11.949c6.273,-3.625 11.789,-8.086 15.927,-14.114c0.129,-0.188 0.372,-0.296 0.562,-0.442c0,14.833 0,29.667 0,44.5c-2.472,0.148 -4.942,0.406 -7.415,0.423c-6.998,0.048 -13.85,1.277 -20.66,2.647c-6.182,1.243 -12.155,3.319 -18.031,5.599c-4.17,1.619 -8.171,3.69 -12.377,5.197c-6.222,2.23 -11.549,6.109 -17.404,9.01c-6.341,3.141 -11.549,7.948 -17.087,12.288c-6.142,4.813 -11.179,10.666 -16.643,16.128c-2.606,2.605 -4.496,5.696 -6.591,8.626c-3.688,5.156 -7.004,10.578 -10.453,15.904c-0.214,0.329 -0.232,0.783 -0.34,1.179z" fill="#FEDBD0" id="svg_4"/>
   <path d="m623,300.642881c0.108,-0.396 0.126,-0.85 0.338,-1.178c3.449,-5.325 6.766,-10.747 10.453,-15.904c2.095,-2.93 3.985,-6.021 6.591,-8.626c5.464,-5.462 10.501,-11.315 16.643,-16.128c5.538,-4.34 10.746,-9.147 17.087,-12.288c5.855,-2.901 11.182,-6.78 17.404,-9.01c4.206,-1.507 8.207,-3.578 12.377,-5.197c5.876,-2.281 11.849,-4.356 18.031,-5.599c6.81,-1.37 13.662,-2.598 20.66,-2.647c2.472,-0.017 4.943,-0.275 7.415,-0.423c0,25.667 0,51.333 0,77c-42.332,0 -84.666,0 -126.999,0zm53.375,-36.965c1.139,-0.251 2.619,-0.443 3.985,-0.943c0.563,-0.206 1.229,-1.084 1.215,-1.641c-0.013,-0.519 -0.836,-1.415 -1.355,-1.454c-2.359,-0.18 -4.741,-0.217 -7.104,-0.089c-0.962,0.052 -1.502,0.973 -1.518,1.987c-0.016,0.99 0.656,1.517 1.505,1.71c0.952,0.218 1.942,0.265 3.272,0.43zm31.44,-5.633c-1.287,0.123 -2.369,0.146 -3.416,0.349c-0.971,0.189 -1.705,0.856 -1.602,1.897c0.107,1.09 0.798,1.832 2.005,1.764c2.388,-0.135 4.776,-0.288 7.159,-0.498c0.801,-0.071 1.394,-0.547 1.424,-1.445c0.031,-0.915 -0.549,-1.353 -1.359,-1.482c-1.467,-0.232 -2.94,-0.411 -4.211,-0.585zm18.439,-17.441c1.112,-0.215 2.701,-0.371 4.167,-0.88c0.615,-0.213 1.278,-1.134 1.369,-1.807c0.134,-0.982 -0.882,-1.442 -1.701,-1.451c-2.232,-0.024 -4.478,0.013 -6.689,0.279c-0.592,0.071 -1.399,0.978 -1.532,1.621c-0.188,0.906 0.367,1.814 1.446,2.009c0.808,0.145 1.643,0.135 2.94,0.229zm-28.051,11.011c0.01,0.05 0.02,0.1 0.03,0.149c1.375,-0.248 2.772,-0.412 4.117,-0.773c0.882,-0.237 1.453,-1.041 1.088,-1.923c-0.234,-0.566 -0.959,-1.235 -1.526,-1.297c-1.551,-0.169 -3.138,-0.088 -4.705,-0.005c-0.552,0.029 -1.29,0.196 -1.585,0.577c-0.46,0.595 -0.888,1.461 -0.802,2.145c0.056,0.438 1.022,0.872 1.655,1.091c0.52,0.178 1.149,0.036 1.728,0.036zm16.873,29.366c0.595,-0.074 1.654,-0.193 2.711,-0.339c1.004,-0.139 1.888,-0.673 1.714,-1.707c-0.109,-0.646 -0.848,-1.376 -1.491,-1.706c-1.902,-0.976 -3.9,-0.309 -5.789,0.143c-0.519,0.124 -1.159,1.292 -1.087,1.904c0.073,0.618 0.87,1.313 1.518,1.651c0.518,0.27 1.289,0.054 2.424,0.054zm-62.107,-1.702c0.992,-0.141 2.333,-0.217 3.6,-0.565c0.519,-0.142 1.203,-0.862 1.214,-1.333c0.01,-0.437 -0.739,-1.228 -1.219,-1.282c-2.214,-0.249 -4.455,-0.413 -6.676,-0.329c-0.544,0.02 -1.336,1.018 -1.5,1.692c-0.23,0.941 0.638,1.49 1.508,1.636c0.896,0.15 1.823,0.117 3.073,0.181zm56.714,10.81c-0.95,0.101 -1.623,0.107 -2.263,0.255c-0.974,0.227 -1.67,0.848 -1.699,1.888c-0.03,1.088 0.736,1.636 1.698,1.861c1.885,0.441 3.648,-0.083 5.244,-1.002c0.951,-0.548 0.863,-1.725 -0.147,-2.201c-0.951,-0.447 -2.046,-0.59 -2.833,-0.801zm26.315,-37.502c0.766,-0.263 1.911,-0.507 2.907,-1.034c1.329,-0.703 1.286,-2.119 -0.137,-2.548c-1.368,-0.413 -2.888,-0.43 -4.34,-0.418c-1.058,0.008 -1.957,0.585 -1.937,1.817c0.019,1.175 0.899,1.694 1.904,1.985c0.389,0.112 0.813,0.105 1.603,0.198zm0.345,19.21c0.952,-0.19 1.982,-0.219 2.829,-0.627c0.533,-0.258 1.055,-1.068 1.089,-1.659c0.026,-0.456 -0.629,-1.207 -1.134,-1.38c-0.902,-0.31 -1.919,-0.375 -2.888,-0.376c-2.054,-0.003 -3.157,0.781 -3.079,2.046c0.086,1.385 0.91,1.871 3.183,1.996zm-51.014,9.677c1.121,-0.151 2.125,-0.188 3.072,-0.44c1.06,-0.282 1.275,-1.309 0.548,-2.125c-0.839,-0.942 -4.41,-1.793 -5.578,-1.336c-0.85,0.332 -1.374,0.897 -1.335,1.857c0.039,0.958 0.583,1.513 1.482,1.72c0.639,0.147 1.292,0.233 1.811,0.324zm54.676,11.76c-1.539,-1.969 -3.594,-2.067 -5.636,-1.96c-0.518,0.027 -1.346,0.675 -1.414,1.13c-0.09,0.604 0.254,1.474 0.712,1.921c1.518,1.481 4.853,0.946 6.338,-1.091zm-63.279,1.341c0.587,-0.147 1.677,-0.286 2.637,-0.716c0.486,-0.218 1.047,-0.983 1.011,-1.458c-0.039,-0.507 -0.658,-1.215 -1.173,-1.388c-0.918,-0.307 -1.947,-0.334 -2.934,-0.373c-1.421,-0.057 -2.583,0.753 -2.604,1.715c-0.021,1.006 1.352,2.18 3.063,2.22zm-31.358,-4.32c-0.518,0.079 -1.188,0.107 -1.81,0.293c-0.819,0.245 -1.502,0.673 -1.465,1.719c0.041,1.148 0.804,1.672 1.744,1.718c1.049,0.052 2.16,-0.065 3.152,-0.39c0.58,-0.19 1.252,-0.858 1.4,-1.436c0.245,-0.953 -0.599,-1.458 -1.413,-1.727c-0.457,-0.149 -0.975,-0.114 -1.608,-0.177z" fill="#548099" id="svg_7"/>
   <path d="m346.953,290.630881c0.806,1.415 1.73,2.778 2.39,4.258c0.832,1.868 1.448,3.832 2.157,5.754c-43.5,0 -87,0 -130.5,0c0.664,-4.841 1.467,-9.669 1.949,-14.528c0.409,-4.123 0.447,-8.283 0.649,-12.426c0.655,-0.292 1.496,-0.416 1.932,-0.903c1.935,-2.161 4.26,-3.808 6.56,-5.537c3.753,-2.82 7.508,-5.604 11.694,-7.767c0.521,-0.269 0.858,-0.895 1.28,-1.356c1.969,-0.804 3.904,-1.705 5.914,-2.389c2.802,-0.953 5.66,-1.745 8.494,-2.605c0.444,0.781 0.854,1.584 1.34,2.338c1.034,1.602 3.777,1.039 4.439,-0.312c0.597,-1.219 1.348,-2.508 0.685,-3.985c1.22,-0.01 2.44,-0.019 3.659,-0.029c0.702,1.529 1.924,2.014 3.551,1.953c1.667,-0.062 1.744,-1.442 2.288,-2.46c1.394,-0.16 2.786,-0.341 4.183,-0.474c0.906,-0.086 1.406,0.366 1.468,1.282c-0.581,0.457 -1.236,0.848 -1.725,1.388c-0.997,1.1 -1.005,2.435 -0.49,3.73c0.443,1.113 1.448,1.554 2.592,1.627c1.41,0.09 3.026,-0.987 3.526,-2.301c0.455,-1.196 0.04,-2.505 -1.157,-3.529c-0.436,-0.373 -0.922,-0.689 -1.385,-1.031c0.254,-0.166 0.511,-0.479 0.762,-0.474c1.561,0.031 3.12,0.133 4.678,0.211c1.094,0.858 2.293,1.005 3.583,0.518c0.516,0.348 0.986,0.863 1.554,1.015c2.989,0.797 5.976,1.653 9.016,2.189c2.214,0.391 4.217,1.307 6.306,1.99c2.187,0.715 4.316,1.674 6.363,2.734c2.392,1.238 4.669,2.697 6.993,4.066c3.399,2.002 6.29,4.673 9.358,7.11c-0.825,0.879 -1.67,1.742 -2.471,2.642c-2.811,3.157 -5.61,6.324 -8.407,9.493c-0.931,1.055 -1.882,2.098 -2.752,3.203c-1.282,1.629 -1.073,4.988 0.312,5.917c1.948,1.307 4.248,0.857 5.65,-1.118c0.623,-0.878 1.155,-1.829 1.845,-2.649c3.565,-4.239 7.427,-8.242 10.273,-13.047c2.732,1.785 4.457,4.533 6.55,6.923c0.331,0.378 0.315,1.06 0.46,1.601c-0.496,0.652 -1.051,1.268 -1.474,1.965c-0.803,1.321 -0.775,3.932 -0.021,4.694c1.143,1.154 3.035,1.425 4.766,0.701c0.375,-0.158 0.775,-0.257 1.163,-0.382zm-72.407,-25.96c0.019,-2.027 -1.097,-3.298 -2.884,-3.284c-1.897,0.015 -4.097,2.687 -4.097,4.975c0,1.415 1.258,2.597 2.755,2.588c2.478,-0.015 4.202,-1.761 4.226,-4.279zm25.954,-5.911c0.013,-1.961 -1.734,-3.932 -3.438,-3.88c-1.956,0.061 -3.375,1.636 -3.444,3.82c-0.054,1.74 1.356,2.824 3.628,2.788c1.744,-0.026 3.244,-1.285 3.254,-2.728zm-11.518,6.038c0.038,-2.048 -0.319,-2.983 -1.43,-3.368c-1.198,-0.415 -2.281,-0.054 -3.198,0.77c-1.084,0.975 -1.515,2.591 -1.055,3.791c0.59,1.539 1.254,2.056 2.702,2.102c1.99,0.063 2.939,-0.986 2.981,-3.295z" fill="#DAF1FF" id="svg_9"/>
   <path d="m703.429,159.265881c0.502,-1.426 1.928,-1.133 2.946,-1.451c1.315,-0.41 2.746,-0.447 4.128,-0.646c-0.073,1.037 -0.284,2.089 -0.18,3.108c0.102,0.994 0.945,1.465 1.891,1.687c1.031,0.242 1.717,-0.193 2.278,-1.028c0.839,-1.249 1.542,-2.52 1.195,-4.107c2.698,-0.336 5.388,-0.789 8.096,-0.966c1.798,-0.118 3.675,0.481 5.423,0.193c4.629,-0.762 9.263,-0.294 13.889,-0.384c2.297,-0.044 4.602,0.301 6.904,0.47c0,6 0,12 0,18c-0.168,0.168 -0.379,0.31 -0.499,0.507c-3.606,5.916 -8.197,10.898 -14.1,14.566c-9.541,5.927 -19.201,11.641 -29.712,15.749c-4.875,1.905 -9.688,3.974 -14.602,5.768c-6.175,2.255 -12.495,3.985 -19.078,4.65c-6.024,0.609 -12.036,1.349 -18.086,2.036c-0.09,-0.077 -0.245,-0.163 -0.332,-0.294c-0.23,-0.345 -0.451,-0.7 -0.642,-1.069c-2.945,-5.662 -7.74,-8.766 -13.872,-9.97c-2.517,-0.494 -5.059,-0.863 -7.59,-1.289c0.122,-1.386 1.372,-1.852 2.257,-2.453c3.107,-2.111 5.83,-4.582 8.397,-7.337c2.64,-2.832 5.637,-5.351 8.608,-7.852c3.084,-2.596 6.282,-5.065 9.508,-7.485c4.242,-3.181 8.981,-5.539 13.649,-8.011c1.312,-0.695 2.5,-1.622 3.798,-2.346c2.435,-1.357 4.861,-2.746 7.38,-3.931c3.057,-1.438 5.85,-3.482 9.246,-4.157c1.207,-0.24 2.427,-0.418 3.641,-0.625c0.038,0.747 0.084,1.493 0.112,2.241c0.048,1.279 0.794,1.688 1.971,1.714c3.458,0.077 4.892,-2.151 3.376,-5.288z" fill="#FEDBD0" id="svg_10"/>
   <path d="m57.51,258.254881c7.145,-2.064 14.546,-3.315 21.271,-6.71c0.294,-0.148 0.596,-0.312 0.913,-0.376c1.115,-0.226 1.846,0.461 1.457,1.539c-0.502,1.392 -1.12,2.772 -1.899,4.026c-1.746,2.811 -3.623,5.542 -5.446,8.305c-3.48,3.206 -6.708,6.758 -10.503,9.534c-5.403,3.951 -11.477,6.726 -18.266,7.474c-3.769,0.415 -7.528,1.343 -11.356,0.469c-0.543,-0.124 -1.098,-0.198 -1.702,-0.304c-2.741,5.966 -4.551,12.065 -5.48,18.43c-0.667,0 -1.333,0 -2,0c0.047,-0.996 -0.041,-2.022 0.163,-2.985c1.855,-8.751 4.84,-17.099 9.313,-24.86c2.197,-3.813 4.602,-7.509 7.008,-11.196c1.63,-2.497 3.424,-4.887 5.145,-7.325c0.707,-0.793 1.414,-1.587 1.826,-2.049c-1.337,-4.444 -2.733,-8.452 -3.722,-12.558c-0.906,-3.763 -0.302,-7.588 0.281,-11.383c0.427,-2.786 0.691,-5.602 0.898,-8.414c0.539,-7.303 1.03,-14.61 1.491,-21.919c0.141,-2.242 0.072,-4.498 0.198,-6.741c0.083,-1.468 -0.072,-3.421 1.695,-3.792c1.799,-0.378 2.727,1.386 3.382,2.777c1.878,3.985 3.742,7.986 4.607,12.361c0.5,2.527 1.048,5.048 1.682,7.544c1.66,6.54 1.353,13.035 -0.341,19.504c-1.01,3.857 -2.083,7.696 -3.115,11.547c-0.081,0.302 -0.059,0.632 -0.138,1.602c4.488,-4.461 7.787,-9.186 11.478,-13.553c3.756,-4.445 7.3,-9.081 10.746,-13.773c3.441,-4.686 6.087,-9.859 8.756,-15.053c-1.95,-0.825 -3.721,-1.493 -5.418,-2.314c-1.995,-0.966 -3.474,-2.515 -4.659,-4.396c-2.918,-4.634 -4.822,-9.683 -6.084,-14.97c-1.099,-4.607 -2.018,-9.257 -2.983,-13.895c-0.37,-1.781 0.934,-2.944 2.664,-2.336c0.675,0.237 1.307,0.735 1.828,1.246c5.293,5.196 10.216,10.715 14.295,16.93c0.951,1.448 1.61,3.09 2.377,4.656c0.715,1.462 1.396,2.941 2.091,4.412c0.184,-0.025 0.369,-0.049 0.553,-0.074c0.57,-2.137 1.031,-4.311 1.741,-6.4c0.686,-2.019 0.513,-3.751 -0.461,-5.692c-1.933,-3.85 -2.263,-8.14 -2.788,-12.352c-0.267,-2.142 -0.713,-4.277 -0.791,-6.425c-0.243,-6.719 2.212,-12.722 5.395,-18.432c1.78,-3.192 3.947,-6.169 5.951,-9.235c0.226,-0.346 0.484,-0.688 0.789,-0.962c1.019,-0.913 1.987,-0.691 2.548,0.593c0.197,0.453 0.33,0.948 0.404,1.438c0.771,5.099 1.548,10.196 1.283,15.386c-0.242,4.729 -0.409,9.461 -0.621,14.191c-0.263,5.86 -1.892,11.295 -5.25,16.133c-0.69,0.994 -1.642,1.891 -2.657,2.548c-0.904,0.586 -1.382,1.11 -1.026,2.166c0.173,0.034 0.378,0.141 0.461,0.081c4.238,-3.071 9.005,-4.968 13.999,-6.39c3.119,-0.888 6.217,-1.852 9.316,-2.809c0.709,-0.219 1.533,-0.754 1.974,0.12c0.211,0.418 -0.073,1.317 -0.429,1.756c-3.838,4.724 -7.825,9.269 -13.147,12.472c-4.119,2.479 -8.495,3.238 -13.181,2.755c-0.401,-0.041 -0.801,-0.094 -1.403,-0.165c-0.513,1.27 -1.061,2.461 -1.48,3.695c-1.126,3.313 -2.51,6.49 -4.453,9.422c-0.589,0.889 -0.936,1.94 -1.393,2.917c-0.092,0.177 -0.184,0.354 -0.276,0.531c0.237,-0.025 0.475,-0.049 0.712,-0.074c8.518,-4.686 17.852,-5.489 27.302,-5.726c4.238,-0.106 8.496,0.056 12.66,-0.997c0.32,-0.081 0.688,-0.208 0.977,-0.122c0.431,0.129 0.934,0.345 1.165,0.687c0.135,0.199 -0.127,0.769 -0.346,1.076c-0.233,0.327 -0.62,0.546 -0.949,0.8c-4.471,3.456 -8.851,7.037 -13.446,10.319c-3.093,2.209 -6.334,4.341 -9.788,5.883c-4.479,1.999 -9.254,2.422 -14.099,0.841c-3.231,-1.054 -6.577,-1.775 -9.11,-4.412c-5.55,7.005 -10.925,13.789 -16.3,20.573c0.1,0.131 0.201,0.262 0.301,0.394c1.158,-0.542 2.28,-1.184 3.48,-1.603c2.105,-0.736 4.22,-1.533 6.399,-1.952c4.669,-0.897 9.384,-1.167 14.146,-0.602c2.304,0.273 4.653,0.157 6.981,0.233c0.495,0.016 1.018,0.013 1.476,0.172c0.931,0.323 1.159,1.218 0.56,1.997c-0.15,0.194 -0.348,0.364 -0.553,0.501c-5.39,3.602 -10.583,7.572 -16.826,9.66c-4.521,1.513 -9.105,2.594 -13.959,1.56c-2.984,-0.636 -6.028,-0.992 -9.407,-1.532c-1.229,1.622 -2.828,3.432 -4.06,5.465c-0.787,1.297 -1.522,2.517 -2.777,3.402c-0.313,0.22 -0.452,0.686 -0.672,1.038c-2.79,3.854 -5.6,7.693 -8.352,11.574c-0.505,0.712 -0.774,1.592 -1.151,2.396c-0.148,0.187 -0.298,0.372 -0.446,0.558c-0.049,0.137 -0.098,0.273 -0.148,0.409c0.085,-0.101 0.169,-0.202 0.254,-0.303c0.175,-0.159 0.349,-0.318 0.524,-0.476c0.359,-0.195 0.757,-0.343 1.072,-0.594c4.498,-3.578 9.142,-6.901 14.687,-8.726c0.769,-0.253 1.457,-0.754 2.182,-1.141zm-3.085,-15.668c-0.545,0.543 -0.931,1.13 -0.546,2.46c0.526,-0.893 0.821,-1.396 1.117,-1.898c-0.19,-0.188 -0.381,-0.375 -0.571,-0.562z" fill="#56819B" id="svg_11"/>
   <path d="m203.5,300.642881c-28.167,0 -56.333,0 -84.5,0c1.579,-2.025 3.197,-4.021 4.731,-6.079c6.246,-8.378 11.41,-17.326 14.302,-27.453c0.29,-1.015 0.785,-1.708 1.872,-2.113c1.625,-0.605 3.261,-1.3 4.707,-2.241c2.703,-1.757 5.273,-3.719 7.899,-5.595c0.724,0.841 1.492,0.323 2.277,0.105c1.509,-0.419 3.015,-0.961 4.557,-1.123c1.518,-0.159 2.939,-0.342 4.212,-1.261c0.46,-0.332 1.027,-0.601 1.581,-0.702c3.082,-0.565 6.171,-1.099 9.267,-1.587c3.507,-0.553 7.013,-1.126 10.537,-1.545c4.593,-0.547 9.198,-1.015 13.808,-1.394c3.384,-0.278 6.784,-0.345 10.175,-0.546c0.372,-0.022 0.727,-0.309 1.091,-0.473c0.773,0.86 1.621,1.664 2.303,2.59c1.619,2.199 3.404,4.325 4.683,6.715c3.164,5.915 4.317,12.338 4.11,19.02c-1.822,1.284 -3.545,2.656 -4.742,4.6c-0.692,1.125 -1.486,2.192 -2.282,3.248c-1.578,2.094 -3.217,4.141 -4.778,6.247c-1.37,1.847 -2.75,3.695 -3.969,5.642c-0.765,1.221 -1.238,2.624 -1.841,3.945z" fill="#B2CDDD" id="svg_12"/>
   <path d="m0,167.642881c1.953,0.858 4.023,1.524 5.837,2.613c4.339,2.606 8.422,5.588 12.183,9.001c7.607,6.902 12.849,15.19 15.549,25.179c1.135,4.2 1.898,8.407 2.177,12.703c0.491,7.553 -0.901,14.816 -3.643,21.862c-1.81,4.652 -4.023,9.07 -6.872,13.17c-0.178,0.257 -0.213,0.613 -0.314,0.923c-0.706,0.697 -1.407,1.399 -2.12,2.089c-1.599,1.548 -3.107,3.208 -4.825,4.612c-4.805,3.927 -9.685,7.762 -14.564,11.598c-1.008,0.792 -1.893,1.912 -3.409,1.75c0.001,-35.167 0.001,-70.333 0.001,-105.5z" fill="#54809A" id="svg_14"/>
   <path d="m26.5,300.642881c0.929,-6.365 2.74,-12.464 5.48,-18.43c0.603,0.106 1.158,0.18 1.702,0.304c3.828,0.874 7.586,-0.054 11.356,-0.469c6.789,-0.748 12.863,-3.524 18.266,-7.474c3.796,-2.775 7.023,-6.328 10.503,-9.534c3.102,2.025 6.632,2.88 10.186,3.581c4.458,0.88 8.946,1.606 13.421,2.397c0.163,0.029 0.331,0.078 0.493,0.066c5.706,-0.412 11.501,0.316 17.092,-1.612c2.083,-0.719 4.354,-0.881 6.519,-1.383c0.977,-0.227 2.248,-0.094 2.553,-1.51c3.712,1.091 7.464,0.778 11.605,0.016c-0.403,1.373 -0.662,2.386 -0.997,3.374c-3.081,9.089 -8.229,17.02 -13.851,24.685c-1.456,1.986 -2.886,3.991 -4.328,5.988c-30,0.001 -60,0.001 -90,0.001z" fill="#B2CDDD" id="svg_15"/>
   <path d="m453.697,248.860881c-1.036,1.466 -1.992,2.999 -3.127,4.385c-1.997,2.439 -3.893,4.933 -5.48,7.668c-0.741,1.277 -1.777,2.387 -1.938,3.947c-0.025,0.244 -0.081,0.511 -0.207,0.716c-2.923,4.751 -4.145,10.224 -6.466,15.235c-0.896,1.934 -1.377,4.067 -1.979,6.129c-0.922,3.158 -1.861,6.316 -2.636,9.511c-0.327,1.347 -0.255,2.791 -0.365,4.191c-8.333,0 -16.667,0 -25,0c-0.064,-0.492 -0.127,-0.984 -0.191,-1.476c-0.786,-6.001 -1.833,-11.982 -2.289,-18.008c-0.5,-6.618 -0.296,-13.268 0.94,-19.837c1.29,-6.857 3.538,-13.302 7.994,-18.814c1.804,-2.231 3.905,-4.056 6.617,-5.126c7.006,-2.763 13.85,-2.131 20.494,1.109c5.215,2.544 9.46,6.425 13.633,10.37z" fill="#FEF6F3" id="svg_18"/>
   <path d="m453.697,248.860881c-4.173,-3.945 -8.418,-7.826 -13.632,-10.369c-6.644,-3.241 -13.488,-3.872 -20.494,-1.109c-2.712,1.069 -4.814,2.894 -6.617,5.126c-4.456,5.512 -6.704,11.957 -7.994,18.814c-1.236,6.569 -1.44,13.219 -0.94,19.837c0.456,6.026 1.503,12.007 2.289,18.008c0.064,0.492 0.128,0.984 0.191,1.476c-1,0 -2,0 -3,0c-0.048,-0.899 -0.047,-1.804 -0.152,-2.696c-0.636,-5.436 -1.441,-10.857 -1.901,-16.307c-0.335,-3.965 -0.414,-7.975 -0.272,-11.952c0.276,-7.714 1.882,-15.169 5.327,-22.127c2.157,-4.356 4.886,-8.252 9.027,-11.079c4.653,-3.177 9.791,-4.007 15.208,-3.599c7.091,0.533 12.977,3.859 18.324,8.305c2.236,1.859 4.459,3.733 6.689,5.599c3.79,3.227 7.337,6.807 11.421,9.605c7.432,5.091 15.641,6.85 24.394,3.67c4.21,-1.529 8.286,-3.37 12.08,-5.845c5.415,-3.533 10.19,-7.729 14.251,-12.749c0.603,-0.745 1.155,-1.531 1.799,-2.388c-4.865,-3.29 -8.586,-7.267 -11.563,-11.948c-1.977,-4.036 -3.754,-8.144 -4.246,-12.674c-0.618,-5.684 0.519,-10.88 4.306,-15.343c7.45,-8.777 17.131,-4.118 20.673,1.989c3.019,5.207 4.006,10.856 2.952,16.788c-0.522,2.935 -1.291,5.827 -1.948,8.738c-1.193,2.637 -2.33,5.303 -3.604,7.9c-0.639,1.302 -1.527,2.482 -2.352,3.795c1.172,0.621 2.086,1.221 3.08,1.615c10.465,4.143 20.984,4.634 31.595,0.488c5.979,-2.336 11.681,-5.231 17.151,-8.551c3.608,-2.19 6.999,-4.739 10.487,-7.127c2.397,-1.768 4.815,-3.507 7.186,-5.31c7.254,-5.519 15.14,-9.814 23.882,-12.49c3.984,-1.219 8.052,-1.862 12.21,-1.993c0.661,-0.021 1.321,-0.104 1.981,-0.157c2.531,0.427 5.073,0.795 7.59,1.29c6.133,1.204 10.928,4.308 13.872,9.97c0.191,0.368 0.411,0.723 0.642,1.069c0.087,0.131 0.242,0.217 0.332,0.294c6.05,-0.686 12.062,-1.426 18.086,-2.036c6.583,-0.666 12.902,-2.396 19.078,-4.65c4.914,-1.794 9.728,-3.863 14.602,-5.768c10.511,-4.108 20.171,-9.822 29.712,-15.749c5.903,-3.667 10.494,-8.65 14.1,-14.566c0.12,-0.197 0.331,-0.339 0.499,-0.507c0,1.667 0,3.333 0,5c-0.19,0.146 -0.434,0.254 -0.562,0.442c-4.137,6.029 -9.654,10.489 -15.927,14.114c-7.271,4.202 -14.354,8.758 -22.164,11.949c-7.229,2.953 -14.434,5.979 -21.76,8.672c-6.414,2.358 -13.101,3.708 -19.931,4.322c-4.868,0.438 -9.722,1.032 -14.698,1.569c0.447,2.367 0.896,4.466 1.232,6.582c0.989,6.238 0.15,12.164 -3.601,17.373c-2.782,3.864 -6.297,6.874 -11.243,7.64c-2.72,0.421 -5.149,-0.852 -6.339,-3.293c-2.429,-4.984 -3.471,-10.145 -1.047,-15.386c2.78,-6.012 7.204,-10.527 13.259,-13.349c1.051,-0.49 2.131,-0.918 3.194,-1.383c0.06,-0.026 0.087,-0.129 0.227,-0.349c-0.797,-2.545 -2.498,-4.521 -4.736,-6.04c-3.833,-2.602 -8.237,-3.539 -12.737,-3.908c-2.553,-0.209 -5.147,0.08 -7.722,0.145c-2.839,0.556 -5.759,0.858 -8.5,1.723c-5.473,1.727 -10.671,4.173 -15.496,7.29c-2.762,1.783 -5.307,3.901 -7.95,5.869c-0.817,0.561 -1.677,1.07 -2.446,1.692c-9.188,7.432 -19.365,13.198 -30.219,17.776c-5.006,2.111 -10.247,3.548 -15.701,3.762c-6.311,0.247 -12.404,-0.995 -18.246,-3.4c-1.536,-0.632 -3.032,-1.364 -4.737,-2.135c-0.982,1.112 -1.995,2.19 -2.932,3.33c-5.141,6.249 -11.288,11.234 -18.465,14.989c-3.85,2.014 -7.804,3.629 -12.041,4.69c-7.43,1.86 -14.189,0.184 -20.6,-3.493c-4.347,-2.493 -8.189,-5.684 -11.787,-9.17c-0.834,-0.816 -1.748,-1.545 -2.626,-2.31zm73.068,-22.082c1.719,-5.217 2.952,-10.54 2.417,-16.06c-0.418,-4.322 -1.932,-8.262 -5.474,-11.091c-3.886,-3.104 -8.374,-3.952 -12.441,0.361c-3.003,3.185 -4.691,7.101 -4.647,11.502c0.057,5.679 1.696,10.943 5.001,15.629c2.474,4.007 5.76,7.16 9.901,9.719c2.297,-3.261 4.164,-6.449 5.243,-10.06zm125.196,-5.674c-5.95,1.56 -10.071,5.141 -13.571,9.623c-2.34,2.996 -2.873,6.522 -2.83,10.114c0.026,2.222 0.639,4.441 1.956,6.347c1.279,1.852 2.618,2.387 4.71,1.598c1.375,-0.518 2.773,-1.183 3.906,-2.097c6.705,-5.413 8.435,-12.613 7.132,-20.786c-0.256,-1.601 -0.846,-3.15 -1.303,-4.799z" fill="#5D859D" id="svg_20"/>
   <path d="m0,273.142881c1.516,0.161 2.401,-0.958 3.409,-1.75c4.879,-3.836 9.759,-7.671 14.564,-11.598c1.717,-1.404 3.226,-3.064 4.825,-4.612c0.713,-0.69 1.414,-1.392 2.12,-2.089c0.999,0.956 2.174,0.507 3.297,0.397c2.798,-0.273 5.591,-0.608 8.392,-0.847c3.306,-0.282 6.367,0.969 9.522,1.631c-1.72,2.438 -3.515,4.828 -5.144,7.325c-2.406,3.687 -4.811,7.384 -7.008,11.196c-4.473,7.761 -7.457,16.109 -9.313,24.86c-0.204,0.963 -0.116,1.988 -0.163,2.985c-8.167,0 -16.333,0 -24.5,0c-0.001,-9.165 -0.001,-18.331 -0.001,-27.498z" fill="#B2CDDD" id="svg_24"/>
   <path d="m116.5,300.642881c1.442,-1.996 2.872,-4.002 4.328,-5.988c5.622,-7.665 10.77,-15.596 13.851,-24.685c0.335,-0.988 0.594,-2.002 0.997,-3.374c-4.141,0.762 -7.892,1.075 -11.605,-0.016c-2.444,-2.027 -4.795,-4.112 -5.824,-7.288c-2.189,-6.757 -0.875,-12.83 3.686,-18.161c2.091,-2.444 5.436,-2.988 8.48,-1.804c4.269,1.661 6.988,4.729 8.105,9.135c0.943,3.719 1.461,7.501 0.999,11.362c-0.087,0.726 -0.013,1.471 -0.013,2.42c0.622,-0.123 1.191,-0.128 1.66,-0.349c1.127,-0.53 2.259,-1.079 3.295,-1.764c5.63,-3.723 11.032,-7.753 15.879,-12.467c8.534,-8.302 18.932,-11.766 30.552,-10.834c8.313,0.666 15.79,3.901 21.214,10.745c0.508,0.641 1.185,1.147 1.784,1.715c1.658,2.364 3.474,4.635 4.939,7.113c3.137,5.308 4.259,11.225 4.77,17.286c-0.202,4.143 -0.24,8.303 -0.649,12.426c-0.482,4.859 -1.285,9.687 -1.949,14.528c-0.667,0 -1.333,0 -2,0c0.064,-0.902 0.077,-1.811 0.199,-2.704c0.954,-6.964 1.934,-13.924 1.911,-20.977c0.208,-6.682 -0.946,-13.105 -4.11,-19.02c-1.279,-2.39 -3.064,-4.516 -4.683,-6.715c-0.682,-0.926 -1.53,-1.731 -2.303,-2.59c-1.733,-2.164 -3.651,-4.181 -6.227,-5.273c-3.279,-1.39 -6.602,-2.749 -10.019,-3.724c-4.067,-1.161 -8.247,-0.643 -12.392,-0.074c-6.704,0.92 -12.55,3.703 -17.688,8.031c-3.75,3.16 -7.454,6.375 -11.178,9.566c-2.626,1.876 -5.196,3.838 -7.899,5.595c-1.447,0.941 -3.082,1.635 -4.707,2.241c-1.087,0.405 -1.582,1.099 -1.872,2.113c-2.892,10.127 -8.056,19.075 -14.302,27.453c-1.535,2.058 -3.152,4.055 -4.731,6.079c-0.831,-0.001 -1.665,-0.001 -2.498,-0.001zm21.085,-44.076c-0.226,-1.841 -0.346,-3.67 -0.69,-5.455c-0.702,-3.64 -2.383,-6.701 -5.587,-8.784c-3.248,-2.112 -6.703,-1.67 -8.715,1.513c-2.711,4.287 -3.974,9.005 -2.481,14.042c1.149,3.876 3.627,6.344 7.888,6.96c2.418,0.349 4.596,-0.35 6.873,-0.68c1.263,-0.183 1.866,-0.953 2.018,-2.163c0.228,-1.812 0.463,-3.622 0.694,-5.433z" fill="#5E879F" id="svg_33"/>
   <path d="m221.11,276.961881c0.023,7.053 -0.957,14.013 -1.911,20.977c-0.123,0.894 -0.136,1.803 -0.199,2.704c-5.167,0 -10.333,0 -15.5,0c0.603,-1.321 1.076,-2.724 1.839,-3.944c1.218,-1.946 2.599,-3.795 3.969,-5.642c1.561,-2.105 3.2,-4.153 4.778,-6.247c0.796,-1.057 1.59,-2.123 2.282,-3.248c1.197,-1.945 2.92,-3.316 4.742,-4.6z" fill="#DAF1FF" id="svg_34"/>
   <path d="m508.133,227.129881c2.977,4.682 6.698,8.658 11.563,11.948c-0.643,0.857 -1.196,1.643 -1.799,2.388c-4.06,5.019 -8.836,9.216 -14.251,12.749c-3.794,2.475 -7.869,4.315 -12.08,5.845c-8.754,3.18 -16.962,1.421 -24.394,-3.67c-4.084,-2.797 -7.631,-6.378 -11.421,-9.605c0.51,-0.232 1.208,-0.327 1.499,-0.721c1.406,-1.904 3.562,-2.659 5.458,-3.826c0.553,-0.341 0.885,-1.041 1.319,-1.576c2.188,-1.133 4.354,-2.31 6.567,-3.391c5.425,-2.651 10.837,-5.319 16.666,-7.044c1.654,-0.49 3.333,-0.605 4.974,-0.974c5.244,-1.179 10.582,-1.552 15.899,-2.123z" fill="#FEDBD0" id="svg_39"/>
   <path d="m586.228,224.746881c-3.488,2.388 -6.878,4.937 -10.487,7.127c-5.47,3.32 -11.172,6.215 -17.151,8.551c-10.612,4.146 -21.13,3.656 -31.595,-0.488c-0.995,-0.394 -1.908,-0.993 -3.08,-1.615c0.824,-1.313 1.713,-2.492 2.352,-3.795c1.274,-2.598 2.411,-5.263 3.604,-7.9c5.575,0.006 11.151,0.061 16.726,-0.003c2.524,-0.029 5.044,-0.372 7.568,-0.427c1.561,-0.034 3.128,0.21 4.693,0.321c0.579,0.041 1.161,0.112 1.738,0.083c2.645,-0.133 5.286,-0.381 7.931,-0.43c5.194,-0.097 10.349,-0.52 15.467,-1.418c0.723,-0.127 1.488,-0.01 2.234,-0.006z" fill="#FEDAD0" id="svg_40"/>
   <path d="m595.508,185.574881c1.815,-0.428 3.265,-0.768 4.714,-1.114c1.426,-0.341 2.629,-0.045 3.518,1.197c0.932,1.301 0.614,2.648 -0.249,3.691c-1.258,1.521 -2.76,2.843 -4.187,4.221c-0.475,0.459 -1.03,0.837 -1.562,1.234c-0.678,0.505 -1.005,1.152 -0.635,1.948c0.77,1.659 0.227,2.937 -1.15,3.892c-1.168,0.81 -2.502,0.376 -4.104,-1.156c-0.049,-0.047 -0.145,-0.046 -0.414,-0.123c-1.114,0.772 -2.349,1.596 -3.549,2.469c-1.042,0.758 -2.035,0.944 -3.203,0.204c-1.139,-0.721 -1.505,-1.711 -1.397,-2.964c0.128,-1.487 0.271,-2.972 0.428,-4.683c-0.666,-0.273 -1.329,-0.554 -1.999,-0.816c-0.692,-0.271 -1.439,-0.442 -2.076,-0.806c-0.871,-0.497 -1.611,-2.212 -1.29,-3.033c0.402,-1.03 1.054,-1.877 2.306,-2.007c1.484,-0.154 2.961,-0.413 4.449,-0.496c1.31,-0.073 2.229,-0.56 2.663,-1.83c0.614,-1.798 1.3,-3.576 1.818,-5.402c0.548,-1.934 1.235,-2.706 2.722,-2.679c1.553,0.028 2.468,0.811 2.643,2.367c0.21,1.888 0.358,3.784 0.554,5.886z" fill="#57829B" id="svg_41"/>
   <path d="m715.687,156.829881c0.347,1.587 -0.356,2.857 -1.195,4.107c-0.56,0.834 -1.247,1.27 -2.278,1.028c-0.946,-0.222 -1.79,-0.693 -1.891,-1.687c-0.104,-1.019 0.107,-2.071 0.18,-3.108c0.053,-0.063 0.104,-0.129 0.16,-0.19c2.162,-2.296 2.731,-2.313 5.024,-0.15z" fill="#648CA3" id="svg_57"/>
   <path d="m706.431,153.888881c-1.644,0.036 -3.161,-1.439 -3.192,-3.104c-0.028,-1.499 1.198,-2.548 3.001,-2.567c1.618,-0.017 3.153,1.284 3.199,2.789c0.058,1.866 -1.115,2.593 -3.008,2.882z" fill="#6F92A7" id="svg_58"/>
   <path d="m703.429,159.265881c1.516,3.137 0.082,5.365 -3.374,5.289c-1.177,-0.026 -1.923,-0.435 -1.971,-1.714c-0.028,-0.747 -0.074,-1.493 -0.112,-2.241c1.107,-1.124 2.482,-1.565 4.025,-1.576c0.175,0.01 0.35,0.019 0.525,0.029c0.302,0.072 0.604,0.142 0.907,0.213z" fill="#6F92A7" id="svg_61"/>
   <path d="m702.521,159.053881c-0.175,-0.009 -0.35,-0.019 -0.525,-0.029c0.175,0.009 0.35,0.019 0.525,0.029z" fill="#FEDBD0" id="svg_63"/>
   <path d="m223.597,273.687881c-0.512,-6.061 -1.633,-11.978 -4.77,-17.286c-1.465,-2.479 -3.282,-4.749 -4.939,-7.113c4.654,-0.328 9.281,-0.385 13.788,1.146c0.932,0.317 1.925,0.51 2.906,0.615c4.351,0.469 7.965,2.621 11.503,4.953c1.017,0.67 1.987,1.413 2.979,2.123c-0.421,0.461 -0.758,1.086 -1.279,1.356c-4.186,2.163 -7.941,4.946 -11.694,7.767c-2.3,1.728 -4.625,3.375 -6.56,5.537c-0.438,0.486 -1.279,0.611 -1.934,0.902z" fill="#B2CDDD" id="svg_64"/>
   <path d="m335.508,275.129881c-2.846,4.805 -6.708,8.808 -10.273,13.047c-0.69,0.82 -1.222,1.771 -1.845,2.649c-1.402,1.974 -3.702,2.424 -5.65,1.118c-1.385,-0.929 -1.593,-4.288 -0.312,-5.917c0.87,-1.105 1.82,-2.147 2.752,-3.203c2.797,-3.169 5.596,-6.336 8.407,-9.493c0.802,-0.9 1.646,-1.763 2.471,-2.642c0.73,-0.128 1.455,-0.312 2.191,-0.373c1.829,-0.152 2.838,0.825 2.697,2.636c-0.056,0.733 -0.286,1.452 -0.438,2.178z" fill="#B4CFDE" id="svg_66"/>
   <path d="m365.213,292.639881c-2.923,0.011 -4.061,-1.133 -3.662,-3.836c0.188,-1.269 0.596,-2.692 1.385,-3.648c2.256,-2.732 4.501,-5.508 7.436,-7.601c2.437,-1.738 4.98,-1.037 5.309,1.618c0.102,0.82 -0.158,1.866 -0.631,2.545c-2.263,3.244 -4.637,6.413 -7.017,9.575c-0.726,0.965 -1.689,1.614 -2.82,1.347z" fill="#B7D0DE" id="svg_68"/>
   <path d="m345.5,268.101881c-2.654,0.057 -4.406,-1.231 -4.777,-3.208c-0.12,-0.641 0.009,-1.577 0.414,-2.029c2.596,-2.899 5.285,-5.716 7.986,-8.519c0.445,-0.463 1.105,-0.714 1.651,-1.085c1.131,-0.771 2.18,-0.518 3.214,0.206c1.045,0.731 1.135,1.807 0.959,2.898c-0.359,2.215 -1.79,3.89 -3.09,5.585c-1.255,1.636 -2.622,3.204 -4.082,4.659c-0.761,0.758 -1.828,1.209 -2.275,1.493z" fill="#B7D0DE" id="svg_69"/>
   <path d="m362.953,268.123881c-2.726,-0.059 -4.533,-2.69 -3.744,-5.101c0.43,-1.314 1.096,-2.661 2.005,-3.683c1.368,-1.538 2.89,-3.059 4.636,-4.101c1.254,-0.749 3.001,-1.022 4.494,-0.932c1.821,0.11 2.8,2.638 1.747,4.331c-0.991,1.594 -1.889,3.258 -3.578,4.394c-1.045,0.703 -1.697,2 -2.499,3.05c-0.892,1.168 -1.963,2 -3.061,2.042z" fill="#B7D0DE" id="svg_70"/>
   <path d="m346.953,290.630881c-0.389,0.126 -0.788,0.224 -1.164,0.382c-1.732,0.724 -3.623,0.453 -4.766,-0.701c-0.755,-0.762 -0.782,-3.373 0.021,-4.694c0.423,-0.696 0.978,-1.312 1.474,-1.965c0.473,-0.289 1.11,-0.468 1.391,-0.887c1.734,-2.582 4.36,-3.985 6.856,-5.494c2.881,1.421 3.464,2.328 2.74,4.45c-0.288,0.844 -0.712,1.688 -1.258,2.389c-1.717,2.21 -3.522,4.352 -5.294,6.52z" fill="#B7D0DE" id="svg_71"/>
   <path d="m57.51,258.254881c-0.725,0.387 -1.413,0.888 -2.182,1.141c-5.545,1.826 -10.189,5.148 -14.687,8.726c-0.315,0.251 -0.713,0.398 -1.073,0.593c-0.061,-0.064 -0.122,-0.126 -0.184,-0.188c0.378,-0.802 0.647,-1.682 1.152,-2.394c2.752,-3.881 5.562,-7.72 8.352,-11.574c0.196,1.12 1.068,0.99 1.89,1.103c2.438,0.336 4.816,0.879 6.732,2.593z" fill="#B2CDDD" id="svg_72"/>
   <path d="m270.464,237.841881c-0.074,1.702 -1.733,3.845 -3.338,4.195c-1.004,0.219 -1.98,0.172 -2.694,-0.786c-0.887,-1.19 -1.42,-2.497 -0.845,-3.92c0.328,-0.812 0.93,-1.582 1.586,-2.177c0.994,-0.901 2.15,-1.678 3.602,-0.953c1.113,0.558 1.759,2.025 1.689,3.641z" fill="#5E879F" id="svg_77"/>
   <path d="m286.407,233.645881c-0.038,2.102 -1.875,3.799 -4.097,3.782c-1.9,-0.014 -3.265,-1.56 -3.191,-3.616c0.07,-1.971 2.163,-4.021 4.041,-3.957c1.579,0.054 3.278,2.038 3.247,3.791z" fill="#5D859D" id="svg_79"/>
   <path d="m265.936,251.172881c0.663,1.477 -0.088,2.766 -0.685,3.985c-0.662,1.351 -3.405,1.914 -4.439,0.312c-0.486,-0.754 -0.896,-1.557 -1.34,-2.338c0.027,-0.161 0.077,-0.321 0.078,-0.482c0.005,-1.561 0.793,-2.748 2.171,-3.216c1.382,-0.47 2.73,0.014 3.716,1.205c0.155,0.188 0.332,0.357 0.499,0.534z" fill="#5E879F" id="svg_81"/>
   <path d="m298.765,241.316881c1.714,-0.007 3.078,1.376 3.141,3.186c0.065,1.862 -1.575,3.436 -3.519,3.378c-1.716,-0.052 -3.134,-1.535 -3.102,-3.246c0.029,-1.599 1.824,-3.311 3.48,-3.318z" fill="#5E879F" id="svg_82"/>
   <path d="m282.445,251.329881c0.463,0.342 0.949,0.658 1.385,1.031c1.197,1.024 1.613,2.333 1.157,3.529c-0.5,1.314 -2.117,2.391 -3.526,2.301c-1.144,-0.073 -2.149,-0.514 -2.592,-1.627c-0.515,-1.295 -0.507,-2.629 0.49,-3.73c0.49,-0.54 1.145,-0.931 1.725,-1.388c0.454,-0.038 0.908,-0.077 1.361,-0.116z" fill="#5E879F" id="svg_83"/>
   <path d="m275.434,250.637881c-0.544,1.018 -0.621,2.398 -2.288,2.46c-1.627,0.06 -2.849,-0.425 -3.551,-1.953c-0.009,-0.574 -0.08,-1.155 -0.016,-1.721c0.219,-1.933 1.62,-3.182 3.424,-3.108c1.562,0.064 2.446,1.248 2.477,3.336c0.005,0.328 -0.03,0.657 -0.046,0.986z" fill="#648CA3" id="svg_85"/>
   <path d="m291.468,251.583881c-1.29,0.487 -2.489,0.34 -3.583,-0.518c-0.97,-2.772 -0.614,-3.836 1.427,-5.153c1.211,-0.782 2.179,-0.419 3.161,0.28c1.001,0.713 1.325,1.786 0.845,2.838c-0.429,0.938 -1.219,1.709 -1.85,2.553z" fill="#648CA3" id="svg_86"/>
   <path d="m281.534,241.295881c1.544,-0.012 2.727,1.275 2.695,2.933c-0.03,1.558 -1.463,2.836 -3.168,2.825c-1.485,-0.01 -2.853,-1.174 -2.926,-2.491c-0.089,-1.609 1.621,-3.253 3.399,-3.267z" fill="#648CA3" id="svg_87"/>
   <path d="m293.736,231.754881c1.644,0.208 2.646,1.505 2.404,3.111c-0.277,1.838 -1.463,3.036 -2.797,2.827c-1.772,-0.278 -3.009,-1.846 -2.752,-3.487c0.254,-1.615 1.58,-2.649 3.145,-2.451z" fill="#648CA3" id="svg_88"/>
   <path d="m593.498,223.123881c2.643,-1.967 5.188,-4.085 7.95,-5.869c4.826,-3.116 10.023,-5.563 15.496,-7.29c2.742,-0.865 5.661,-1.167 8.5,-1.723c-2.26,1.482 -4.49,3.011 -6.786,4.435c-5.762,3.575 -11.658,6.908 -18.194,8.877c-2.273,0.686 -4.641,1.056 -6.966,1.57z" fill="#FDFDFE" id="svg_122"/>
   <path d="m676.375,263.677881c-1.33,-0.165 -2.321,-0.213 -3.273,-0.429c-0.848,-0.193 -1.521,-0.721 -1.505,-1.71c0.016,-1.015 0.557,-1.935 1.518,-1.987c2.362,-0.128 4.745,-0.09 7.104,0.089c0.519,0.039 1.342,0.936 1.355,1.454c0.014,0.556 -0.651,1.434 -1.215,1.641c-1.365,0.5 -2.844,0.691 -3.984,0.942z" fill="#EDD1CA" id="svg_131"/>
   <path d="m707.815,258.044881c1.271,0.174 2.745,0.353 4.21,0.585c0.81,0.129 1.39,0.567 1.359,1.482c-0.03,0.897 -0.622,1.374 -1.424,1.445c-2.382,0.211 -4.77,0.363 -7.159,0.498c-1.207,0.068 -1.898,-0.673 -2.005,-1.764c-0.103,-1.041 0.632,-1.708 1.602,-1.897c1.047,-0.203 2.13,-0.226 3.417,-0.349z" fill="#EDD1CA" id="svg_132"/>
   <path d="m726.254,240.603881c-1.297,-0.094 -2.132,-0.084 -2.94,-0.23c-1.079,-0.195 -1.634,-1.103 -1.446,-2.009c0.133,-0.642 0.94,-1.549 1.532,-1.621c2.211,-0.265 4.457,-0.303 6.689,-0.279c0.819,0.009 1.835,0.469 1.701,1.451c-0.092,0.674 -0.755,1.594 -1.369,1.807c-1.466,0.51 -3.055,0.666 -4.167,0.881z" fill="#EDD1CA" id="svg_133"/>
   <path d="m698.203,251.614881c-0.58,0 -1.209,0.142 -1.727,-0.036c-0.633,-0.219 -1.599,-0.652 -1.655,-1.091c-0.087,-0.684 0.341,-1.55 0.802,-2.145c0.295,-0.381 1.033,-0.548 1.585,-0.577c1.567,-0.083 3.154,-0.164 4.705,0.005c0.566,0.062 1.292,0.731 1.526,1.297c0.365,0.882 -0.206,1.686 -1.088,1.923c-1.345,0.361 -2.742,0.525 -4.117,0.773c-0.01,-0.05 -0.02,-0.1 -0.031,-0.149z" fill="#EDD1CA" id="svg_134"/>
   <path d="m715.076,280.980881c-1.135,0 -1.906,0.215 -2.424,-0.055c-0.648,-0.338 -1.446,-1.033 -1.518,-1.651c-0.072,-0.612 0.568,-1.78 1.087,-1.904c1.89,-0.452 3.887,-1.119 5.789,-0.143c0.643,0.33 1.382,1.06 1.491,1.706c0.174,1.034 -0.71,1.569 -1.714,1.707c-1.056,0.147 -2.116,0.266 -2.711,0.34z" fill="#EDD1CA" id="svg_135"/>
   <path d="m652.969,279.278881c-1.25,-0.064 -2.178,-0.031 -3.074,-0.181c-0.87,-0.146 -1.738,-0.696 -1.508,-1.636c0.165,-0.674 0.957,-1.671 1.5,-1.692c2.221,-0.083 4.462,0.08 6.676,0.329c0.48,0.054 1.229,0.845 1.219,1.282c-0.011,0.471 -0.695,1.191 -1.214,1.333c-1.265,0.348 -2.607,0.425 -3.599,0.565z" fill="#EDD1CA" id="svg_136"/>
   <path d="m709.683,290.088881c0.787,0.211 1.882,0.354 2.833,0.801c1.011,0.476 1.098,1.653 0.147,2.201c-1.596,0.919 -3.36,1.443 -5.244,1.002c-0.962,-0.225 -1.728,-0.773 -1.698,-1.861c0.029,-1.04 0.724,-1.662 1.699,-1.888c0.64,-0.148 1.313,-0.154 2.263,-0.255z" fill="#EDD1CA" id="svg_137"/>
   <path d="m735.998,252.586881c-0.79,-0.092 -1.214,-0.085 -1.604,-0.198c-1.005,-0.291 -1.885,-0.81 -1.904,-1.985c-0.02,-1.232 0.879,-1.808 1.937,-1.817c1.452,-0.012 2.972,0.005 4.34,0.418c1.423,0.429 1.466,1.845 0.137,2.548c-0.995,0.527 -2.14,0.771 -2.906,1.034z" fill="#EDD1CA" id="svg_138"/>
   <path d="m736.343,271.796881c-2.273,-0.125 -3.097,-0.611 -3.183,-1.997c-0.078,-1.265 1.025,-2.049 3.079,-2.046c0.969,0.001 1.987,0.067 2.888,0.376c0.505,0.173 1.16,0.925 1.134,1.38c-0.034,0.591 -0.556,1.402 -1.089,1.659c-0.846,0.409 -1.876,0.438 -2.829,0.628z" fill="#EDD1CA" id="svg_139"/>
   <path d="m685.329,281.473881c-0.519,-0.091 -1.172,-0.177 -1.811,-0.324c-0.899,-0.207 -1.443,-0.763 -1.482,-1.72c-0.039,-0.96 0.485,-1.524 1.335,-1.857c1.168,-0.457 4.739,0.394 5.578,1.336c0.727,0.816 0.512,1.843 -0.548,2.125c-0.947,0.252 -1.951,0.289 -3.072,0.44z" fill="#EDD1CA" id="svg_140"/>
   <path d="m740.005,293.233881c-1.484,2.038 -4.82,2.573 -6.338,1.091c-0.458,-0.447 -0.802,-1.318 -0.712,-1.921c0.068,-0.455 0.896,-1.103 1.414,-1.13c2.041,-0.107 4.097,-0.01 5.636,1.96z" fill="#EDD1CA" id="svg_141"/>
   <path d="m676.726,294.574881c-1.711,-0.04 -3.084,-1.214 -3.063,-2.22c0.021,-0.962 1.182,-1.772 2.604,-1.715c0.987,0.039 2.016,0.066 2.934,0.373c0.515,0.172 1.134,0.88 1.173,1.388c0.036,0.475 -0.525,1.241 -1.011,1.458c-0.96,0.43 -2.05,0.569 -2.637,0.716z" fill="#EDD1CA" id="svg_142"/>
   <path d="m645.368,290.254881c0.633,0.063 1.151,0.028 1.608,0.179c0.814,0.269 1.658,0.774 1.413,1.727c-0.148,0.577 -0.82,1.246 -1.4,1.436c-0.992,0.324 -2.103,0.442 -3.152,0.39c-0.94,-0.046 -1.703,-0.571 -1.744,-1.718c-0.038,-1.047 0.646,-1.474 1.465,-1.719c0.622,-0.188 1.291,-0.216 1.81,-0.295z" fill="#EDD1CA" id="svg_143"/>
   <path d="m274.546,264.670881c-0.023,2.518 -1.747,4.264 -4.225,4.279c-1.497,0.009 -2.755,-1.173 -2.755,-2.588c0,-2.289 2.2,-4.961 4.097,-4.975c1.785,-0.014 2.901,1.257 2.883,3.284z" fill="#5C869F" id="svg_145"/>
   <path d="m300.5,258.759881c-0.01,1.443 -1.51,2.701 -3.254,2.729c-2.272,0.036 -3.682,-1.048 -3.628,-2.788c0.068,-2.185 1.488,-3.76 3.444,-3.82c1.704,-0.053 3.451,1.919 3.438,3.879z" fill="#5C869F" id="svg_146"/>
   <path d="m288.982,264.797881c-0.042,2.309 -0.991,3.358 -2.981,3.296c-1.448,-0.045 -2.113,-0.562 -2.702,-2.102c-0.46,-1.2 -0.029,-2.816 1.055,-3.791c0.917,-0.825 2,-1.185 3.198,-0.77c1.111,0.384 1.468,1.319 1.43,3.367z" fill="#5E879F" id="svg_147"/>
   <path d="m54.996,243.147881c-0.296,0.503 -0.591,1.005 -1.117,1.898c-0.385,-1.33 0.001,-1.917 0.546,-2.46c0.191,0.188 0.381,0.375 0.571,0.562z" fill="#B7D0DE" id="svg_148"/>
   <path d="m54.996,243.147881c-0.19,-0.187 -0.381,-0.375 -0.571,-0.562c0.19,0.188 0.381,0.375 0.571,0.562z" fill="#FFF6F3" id="svg_149"/>
   <path d="m85.732,206.903881c-0.237,0.025 -0.475,0.049 -0.712,0.074c0.092,-0.177 0.185,-0.353 0.276,-0.531c0.145,0.152 0.291,0.304 0.436,0.457z" fill="#FFF6F3" id="svg_150"/>
   <path d="m38.938,269.085881c0.15,-0.185 0.299,-0.37 0.447,-0.557c0.061,0.06 0.122,0.123 0.183,0.187c-0.174,0.159 -0.349,0.318 -0.523,0.477l-0.107,-0.107z" fill="#B2CDDD" id="svg_151"/>
   <path d="m39.045,269.192881c-0.085,0.101 -0.169,0.202 -0.254,0.303c0.049,-0.136 0.099,-0.272 0.148,-0.409c-0.001,-0.001 0.106,0.106 0.106,0.106z" fill="#B2CDDD" id="svg_152"/>
   <path d="m152.512,257.161881c3.724,-3.191 7.427,-6.406 11.178,-9.566c5.138,-4.329 10.983,-7.111 17.688,-8.031c4.144,-0.569 8.325,-1.086 12.392,0.074c3.417,0.975 6.74,2.334 10.019,3.724c2.576,1.092 4.493,3.109 6.227,5.273c-0.363,0.164 -0.719,0.451 -1.09,0.473c-3.391,0.201 -6.791,0.268 -10.175,0.546c-4.61,0.379 -9.215,0.848 -13.808,1.394c-3.524,0.419 -7.03,0.992 -10.537,1.545c-3.095,0.488 -6.184,1.022 -9.267,1.587c-0.554,0.102 -1.122,0.37 -1.581,0.702c-1.272,0.919 -2.694,1.102 -4.212,1.261c-1.542,0.161 -3.047,0.703 -4.557,1.123c-0.786,0.218 -1.553,0.736 -2.277,-0.105z" fill="#FCF4F2" id="svg_153"/>
   <path d="m511.621,227.118881c-3.305,-4.685 -4.944,-9.95 -5.001,-15.629c-0.044,-4.401 1.644,-8.317 4.647,-11.502c4.067,-4.313 8.555,-3.465 12.441,-0.361c3.542,2.83 5.056,6.77 5.474,11.091c0.534,5.52 -0.699,10.843 -2.418,16.059c-0.983,-0.041 -1.967,-0.142 -2.947,-0.111c-4.066,0.131 -8.131,0.299 -12.196,0.453z" fill="#FDFDFE" id="svg_154"/>
   <path d="m651.961,221.104881c0.457,1.649 1.046,3.198 1.302,4.8c1.302,8.173 -0.427,15.373 -7.132,20.786c-1.133,0.914 -2.531,1.579 -3.906,2.097c-2.092,0.788 -3.43,0.253 -4.71,-1.598c-1.317,-1.906 -1.929,-4.125 -1.956,-6.347c-0.043,-3.592 0.49,-7.119 2.83,-10.114c3.502,-4.483 7.622,-8.064 13.572,-9.624z" fill="#FCDACF" id="svg_155"/>
   <path d="m511.621,227.118881c4.065,-0.154 8.13,-0.323 12.197,-0.451c0.98,-0.031 1.964,0.07 2.947,0.111c-1.078,3.612 -2.945,6.8 -5.242,10.06c-4.142,-2.56 -7.428,-5.713 -9.902,-9.72z" fill="#FCDACF" id="svg_156"/>
   <path d="m137.585,256.566881c-0.232,1.81 -0.466,3.621 -0.694,5.431c-0.152,1.21 -0.755,1.98 -2.018,2.163c-2.277,0.33 -4.455,1.03 -6.873,0.68c-4.262,-0.616 -6.739,-3.083 -7.888,-6.96c-1.494,-5.037 -0.23,-9.754 2.481,-14.042c2.013,-3.184 5.467,-3.625 8.715,-1.513c3.204,2.084 4.885,5.144 5.587,8.784c0.345,1.788 0.465,3.616 0.69,5.457z" fill="#FCF4F2" id="svg_163"/>
  </g>
 </g>
</svg>