<?xml version="1.0" encoding="utf-8"?>
<svg width="240" height="240" xmlns="http://www.w3.org/2000/svg">
  <g class="layer">
    <g id="svg_188">
      <g id="svg_189">
        <polygon fill="#E7B598" id="svg_190" points="105.89300537109375,190.30499267578125 107.11898803710938,208.34300231933594 115.42999267578125,207.98500061035156 115.1409912109375,189.718994140625 "/>
        <g id="svg_191">
          <g id="svg_192">
            <path d="m106.501,206.34l-15.149,6.908c-0.992,0.498 -1.514,1.611 -1.261,2.692l0,0l26.72,0l-0.993,-9.711l-9.317,0.111z" id="svg_193"/>
            <rect fill="#CCCCCC" height="2.874" id="svg_194" width="27.532" x="89.751" y="215.94"/>
          </g>
          <g id="svg_195">
            <line fill="none" id="svg_196" stroke="#CCCCCC" stroke-linecap="round" stroke-linejoin="round" stroke-miterlimit="10" stroke-width="1.0231" x1="101.835" x2="103.478" y1="208.069" y2="209.465"/>
            <line fill="none" id="svg_197" stroke="#CCCCCC" stroke-linecap="round" stroke-linejoin="round" stroke-miterlimit="10" stroke-width="1.0231" x1="99.631" x2="101.286" y1="209.129" y2="210.537"/>
            <line fill="none" id="svg_198" stroke="#CCCCCC" stroke-linecap="round" stroke-linejoin="round" stroke-miterlimit="10" stroke-width="1.0231" x1="97.419" x2="99.168" y1="210.239" y2="211.73"/>
          </g>
        </g>
      </g>
      <g id="svg_199">
        <polygon fill="#E7B598" id="svg_200" points="132.95599365234375,190.30499267578125 134.1820068359375,208.34300231933594 142.49301147460938,207.98500061035156 142.20401000976562,189.718994140625 "/>
        <g id="svg_201">
          <g id="svg_202">
            <path d="m133.563,206.34l-15.149,6.908c-0.992,0.498 -1.514,1.611 -1.261,2.692l0,0l26.72,0l-0.993,-9.711l-9.317,0.111z" id="svg_203"/>
            <rect fill="#CCCCCC" height="2.874" id="svg_204" width="27.532" x="116.814" y="215.94"/>
          </g>
          <g id="svg_205">
            <line fill="none" id="svg_206" stroke="#CCCCCC" stroke-linecap="round" stroke-linejoin="round" stroke-miterlimit="10" stroke-width="1.0231" x1="128.898" x2="130.54" y1="208.069" y2="209.465"/>
            <line fill="none" id="svg_207" stroke="#CCCCCC" stroke-linecap="round" stroke-linejoin="round" stroke-miterlimit="10" stroke-width="1.0231" x1="126.694" x2="128.349" y1="209.129" y2="210.537"/>
            <line fill="none" id="svg_208" stroke="#CCCCCC" stroke-linecap="round" stroke-linejoin="round" stroke-miterlimit="10" stroke-width="1.0231" x1="124.482" x2="126.231" y1="210.239" y2="211.73"/>
          </g>
        </g>
      </g>
      <g id="svg_209">
        <polygon fill="#A69382" id="svg_210" points="110.69400024414062,105.5979995727539 142.58099365234375,108.02799987792969 145.22799682617188,197.60800170898438 129.34298706054688,197.60800170898438 123.68499755859375,130.04200744628906 116.10400390625,158.91400146484375 118.68499755859375,198.6999969482422 103.80899047851562,198.7429962158203 98.67599487304688,154.75100708007812 "/>
        <line fill="none" id="svg_211" stroke="#A69382" stroke-miterlimit="10" stroke-width="0.75" x1="116.554" x2="123.685" y1="126.149" y2="130.042"/>
      </g>
    </g>
    <g id="svg_212">
      <g id="svg_213">
        <polygon fill="#EBAB9D" id="svg_214" points="111.10598754882812,78.26899719238281 111.31298828125,87.06099700927734 106.32199096679688,87.125 106.69000244140625,77.66100311279297 "/>
        <path d="m110.799,63.347c0,0 -6.674,4.388 -5.975,15.518l6.489,0.73l-0.514,-16.248z" fill="#707DEF" id="svg_215"/>
      </g>
      <g id="svg_216">
        <path d="m126.881,58.394c8.026,0 17.123,2.774 17.123,2.774l-0.346,51.05l-33.9,-2.604l0.359,-44.65c0.007,-0.79 0.442,-1.514 1.136,-1.891l9.375,-4.011c0,0.001 4.615,-0.668 6.253,-0.668z" fill="#707DEF" id="svg_217"/>
        <line fill="none" id="svg_218" stroke="#566AE1" stroke-miterlimit="10" stroke-width="0.764" x1="109.995" x2="109.995" y1="79.446" y2="68.69"/>
      </g>
      <g id="svg_219">
        <g id="svg_220">
          <path d="m139.987,78.372l2.181,25.251c0,0 2.408,5.078 6.667,-0.204c4.259,-5.282 0.614,-25.916 0.614,-25.916l-9.462,0.869z" fill="#E7B598" id="svg_221"/>
          <g id="svg_222">
            <path d="m137.918,80.866c0,0 -1.819,-18.64 4.081,-19.735c6.117,-1.136 9.67,10.396 10.236,18.659l-14.317,1.076z" fill="#707DEF" id="svg_223"/>
            <path d="m140.187,80.695l-2.269,0.171c0,0 -0.664,-6.379 -0.265,-10.813" fill="none" id="svg_224" stroke="#566AE1" stroke-miterlimit="10" stroke-width="0.764"/>
          </g>
        </g>
        <g id="svg_225">
          <g id="svg_226">
            <path d="m125.509,79.979c0,0 -1.228,-4.452 -5.684,-4.886c-4.456,-0.434 -5.767,3.064 -4.928,5.368c0.839,2.304 3.738,6.054 8.13,4.136c4.392,-1.918 2.482,-4.618 2.482,-4.618z" fill="#E7B598" id="svg_227"/>
            <path d="m118.346,75.099c0,0 -4.376,0.502 -7.633,2.089c-0.331,0.161 -0.512,0.525 -0.464,0.89l0,0c0.065,0.493 0.531,0.831 1.02,0.74l6.039,-1.129l1.038,-2.59z" fill="#E7B598" id="svg_228"/>
          </g>
          <g id="svg_229">
            <polygon fill="#E7B598" id="svg_230" points="143.11099243164062,104.90899658203125 123.0260009765625,84.59700012207031 125.50900268554688,79.97899627685547 145.04400634765625,92.39099884033203 "/>
            <line fill="none" id="svg_231" stroke="#DEA888" stroke-miterlimit="10" stroke-width="0.764" x1="140.974" x2="145.044" y1="89.805" y2="92.391"/>
          </g>
        </g>
      </g>
    </g>
    <g id="svg_232">
      <g id="svg_233">
        <path d="m98.081,85.09l8.447,25.074c0.29,0.862 1.151,1.399 2.053,1.28l20.53,-2.697c1.196,-0.157 1.947,-1.373 1.551,-2.513l-8.695,-25.042c-0.296,-0.853 -1.151,-1.381 -2.047,-1.264l-20.282,2.664c-1.19,0.157 -1.94,1.361 -1.557,2.498z" fill="#222324" id="svg_234"/>
        <polygon fill="#222324" id="svg_235" points="98.44100952148438,83.23100280761719 97.36801147460938,84.6240005493164 129.35501098632812,109.32099914550781 130.50201416015625,107.82599639892578 "/>
        <path d="m97.114,86.335l8.447,25.074c0.29,0.862 1.15,1.399 2.053,1.28l20.53,-2.697c1.196,-0.157 1.947,-1.373 1.551,-2.513l-8.695,-25.04c-0.296,-0.853 -1.151,-1.381 -2.047,-1.263l-20.282,2.664c-1.19,0.155 -1.94,1.359 -1.557,2.495z" fill="#556167" id="svg_236"/>
        <path d="m109.496,94.445c0.009,1.221 1.005,2.204 2.226,2.195c1.221,-0.009 2.204,-1.005 2.195,-2.226c-0.009,-1.221 -1.005,-2.204 -2.226,-2.195c-1.221,0.008 -2.204,1.005 -2.195,2.226z" fill="#86969C" id="svg_237"/>
      </g>
      <path d="m98.071,93.622l1.923,5.188c0.235,0.633 0.876,1.019 1.545,0.931l0,0c1.97,-0.259 3.232,-2.23 2.642,-4.128l-0.541,-1.74c-0.433,-1.394 -1.754,-2.319 -3.212,-2.25l-1.07,0.051c-0.977,0.047 -1.627,1.03 -1.287,1.948z" fill="#E7B598" id="svg_238"/>
    </g>
    <g id="svg_239">
      <path d="m119.195,26.137c0,0 19.114,-5.53 12.146,14.151l-3.095,-6.884l-9.051,-7.267z" fill="#4F3639" id="svg_240"/>
      <path d="m111.261,33.648c0,0 -4.703,2.124 0.548,8.693l1.677,-9.011l-2.225,0.318z" fill="#4F3639" id="svg_241"/>
      <path d="m116.028,43.543c0.332,1.727 -0.755,3.394 -2.427,3.723c-1.672,0.329 -3.296,-0.805 -3.628,-2.532c-0.332,-1.727 0.755,-3.394 2.426,-3.723c1.673,-0.33 3.298,0.804 3.629,2.532z" fill="#DEA888" id="svg_242"/>
      <path d="m119.478,50.804l1.02,8.228c0.352,2.89 2.265,4.218 5.017,3.848l0,0c2.349,-0.315 4.79,-1.776 4.371,-4.31l-1.213,-12.919l-9.195,5.153z" fill="#E7B598" id="svg_243"/>
      <path d="m120.34,57.913c0,0 9.269,-3.364 8.49,-11.668c-0.232,-2.474 -9.473,3.717 -9.473,3.717l0.983,7.951z" fill="#DEA888" id="svg_244"/>
      <path d="m122.243,53.961l0,0c-5.105,0.903 -8.527,-3.188 -8.757,-5.275l-2.19,-9.681c-0.788,-4.945 2.364,-9.612 7.123,-10.548l0,0c4.872,-0.958 10.458,2.177 11.425,7.21l0.911,6.449c0.828,5.806 -2.939,10.749 -8.512,11.845z" fill="#E7B598" id="svg_245"/>
      <g id="svg_246">
        <polyline fill="none" id="svg_247" points="117.26400756835938,45.770999908447266 117.29000854492188,47.65800094604492 118.43499755859375,47.56100082397461 " stroke="#1F2326" stroke-linecap="round" stroke-linejoin="round" stroke-miterlimit="10" stroke-width="0.5281"/>
        <path d="m121.502,40.326c0,0 -1.907,0.072 -1.828,0.868c0,0 0.068,0.537 1.727,0.441c1.659,-0.096 2.072,-0.273 2.16,-0.796c0.089,-0.524 -1.173,-0.617 -2.059,-0.513z" fill="#1F2326" id="svg_248"/>
        <path d="m113.909,41.295c0,0 1.537,-0.358 1.756,0.372c0,0 0.136,0.495 -1.214,0.777c-1.35,0.282 -1.816,0.157 -1.995,-0.234c-0.201,-0.444 0.715,-0.812 1.453,-0.915z" fill="#1F2326" id="svg_249"/>
        <path d="m115.497,44.944c0.07,0.45 -0.227,0.87 -0.662,0.939c-0.436,0.069 -0.845,-0.24 -0.915,-0.69c-0.07,-0.45 0.226,-0.87 0.662,-0.939c0.435,-0.069 0.845,0.24 0.915,0.69z" fill="#1F2326" id="svg_250"/>
        <path d="m122.407,43.851c0.07,0.45 -0.226,0.87 -0.662,0.939c-0.435,0.068 -0.845,-0.241 -0.915,-0.69c-0.07,-0.45 0.226,-0.87 0.662,-0.939c0.436,-0.069 0.845,0.24 0.915,0.69z" fill="#1F2326" id="svg_251"/>
        <path d="m117.256,49.092l4.875,-0.54c0,0 -0.146,1.713 -2.692,1.714c-1.653,0.001 -2.183,-1.174 -2.183,-1.174z" fill="#FFFFFF" id="svg_252"/>
      </g>
      <path d="m131.754,33.022l-0.413,7.266l-1.408,1.572l0,0c-1.085,-0.37 -2.49,-0.348 -3.389,-1.572c-0.665,-0.904 -1.326,-2.593 -1.349,-3.715l-0.032,-1.564l-3.829,2.827c-0.6,-1.4 -1.279,-3.264 -1.279,-3.264s-0.913,0.065 -2.157,3.101c0,0 -9.875,2.985 -9.87,-3.036c0.005,-6.355 11.168,-8.498 11.168,-8.498l9.609,3.278l2.949,3.605z" fill="#4F3639" id="svg_253"/>
      <g id="svg_254">
        <g id="svg_255">
          <path d="m135.054,42.129c0.358,1.864 -0.814,3.662 -2.618,4.017c-1.804,0.355 -3.557,-0.868 -3.915,-2.732c-0.358,-1.864 0.814,-3.662 2.618,-4.017c1.805,-0.356 3.557,0.868 3.915,2.732z" fill="#E7B598" id="svg_256"/>
          <path d="m130.839,43.999c0,0 -0.47,-2.447 1.868,-2.507" fill="none" id="svg_257" stroke="#1F2326" stroke-linecap="round" stroke-linejoin="round" stroke-miterlimit="10" stroke-width="0.5387"/>
        </g>
      </g>
      <path d="m118.435,60.001l4,-1.86l7.054,0.202l4.137,0.578c0,0 1.542,6.197 -8.92,6.542c-8.365,0.276 -6.271,-5.462 -6.271,-5.462z" fill="#E7B598" id="svg_258"/>
    </g>
  </g>
</svg>