<?xml version="1.0"?>
<svg width="120" height="240" xmlns="http://www.w3.org/2000/svg" xmlns:svg="http://www.w3.org/2000/svg">
 <g class="layer">
  <title>Layer 1</title>
  <g id="OBJECTS">
   <g id="svg_2">
    <g id="svg_3">
     <g id="svg_4">
      <g id="svg_5">
       <g id="svg_6"/>
      </g>
      <g id="svg_13">
       <g id="svg_14">
        <g id="svg_15">
         <g id="svg_17">
          <g id="svg_18"/>
         </g>
        </g>
       </g>
       <g id="svg_22">
        <g id="svg_23">
         <g id="svg_25">
          <g id="svg_26"/>
         </g>
        </g>
        <g id="svg_29">
         <g id="svg_31"/>
        </g>
       </g>
      </g>
     </g>
     <g id="svg_33">
      <g id="svg_34">
       <g id="svg_35">
        <g id="svg_37">
         <g id="svg_38"/>
        </g>
       </g>
       <g id="svg_42"/>
       <g id="svg_45">
        <g id="svg_46"/>
        <g id="svg_49">
         <g id="svg_50"/>
         <g id="svg_53"/>
        </g>
       </g>
      </g>
      <g id="svg_57">
       <g id="svg_59"/>
      </g>
     </g>
     <g id="svg_63">
      <g id="svg_69"/>
      <g id="svg_72">
       <g id="svg_78"/>
      </g>
     </g>
    </g>
    <g id="svg_87">
     <g id="svg_89">
      <g id="svg_90">
       <g id="svg_91">
        <g id="svg_94"/>
       </g>
      </g>
      <g id="svg_98">
       <g id="svg_99"/>
      </g>
     </g>
    </g>
   </g>
   <g id="svg_105">
    <g id="svg_106">
     <g id="svg_107">
      <g id="svg_108">
       <path d="m61.3,141.244l-2.689,64.307l-4.824,-0.362c0,0 -5.422,-36.369 -4.115,-54.575l11.628,-9.37z" fill="#EDBC9C" id="svg_109"/>
       <g id="svg_110">
        <path d="m63.882,214.201c0,0 6.033,2.309 6.64,4.92l-13.121,0l-2.064,-4.069l-1.397,4.069l-1.412,0c0,0 -1.324,-10.555 1.259,-13.931l10.095,9.011z" fill="#20202A" id="svg_111"/>
        <path d="m58.7,203.276l-0.089,2.275l5.837,9.767c0,0 -6.44,1.208 -8.852,-3.375c-2.412,-4.583 -1.809,-6.754 -1.809,-6.754l-0.33,-2.194l5.243,0.281z" fill="#EDBC9C" id="svg_112"/>
       </g>
      </g>
      <g id="svg_113">
       <path d="m47.796,141.244l-2.689,64.307l-4.824,-0.362c0,0 -5.422,-36.369 -4.114,-54.575l11.627,-9.37z" fill="#EDBC9C" id="svg_114"/>
       <g id="svg_115">
        <path d="m50.378,214.201c0,0 6.033,2.309 6.64,4.92l-13.121,0l-2.065,-4.069l-1.397,4.069l-1.412,0c0,0 -1.324,-10.555 1.259,-13.931l10.096,9.011z" fill="#20202A" id="svg_116"/>
        <path d="m45.196,203.276l-0.089,2.275l5.837,9.767c0,0 -6.44,1.208 -8.852,-3.375c-2.412,-4.583 -1.809,-6.754 -1.809,-6.754l-0.33,-2.194l5.243,0.281z" fill="#EDBC9C" id="svg_117"/>
       </g>
      </g>
      <path d="m37.759,96.171c0,0 -6.725,1.185 -10.812,43.664l-1.451,16.827c0,0 5.437,-1.917 14.885,2.343c9.449,4.26 30.029,-4.686 30.029,-4.686s-1.349,-39.087 -10.452,-59.906l-22.199,1.758z" fill="#C4B6A7" id="svg_118"/>
     </g>
     <g id="svg_119">
      <path d="m36.29,33.629c0,0 0.423,6.627 -1.553,10.145c-1.976,3.518 -3.479,4.967 -4.006,8.788c0,0 16.576,4.945 33.177,-0.558l-6.522,-18.376l-21.096,0l0,0.001z" fill="#412424" id="svg_120"/>
      <path d="m57.354,26.041c0,0 -15.531,-4.207 -19.923,3.58c-3.187,5.65 0.578,15.881 7.856,18.764c6.932,2.746 4.965,-19.842 4.965,-19.842l7.102,-2.502z" fill="#412424" id="svg_121"/>
      <path d="m55.874,40.087c-0.157,1.865 1.227,3.504 3.092,3.661c1.865,0.157 3.504,-1.227 3.661,-3.092c0.157,-1.865 -1.227,-3.504 -3.092,-3.661c-1.865,-0.158 -3.504,1.227 -3.661,3.092z" fill="#DEA888" id="svg_122"/>
      <path d="m54.352,49.556l-0.576,7.363c-0.197,2.586 -1.896,3.847 -4.44,3.633l0,0c-2.172,-0.183 -4.117,-1.476 -4.205,-3.653l1.464,-11.544l7.757,4.201z" fill="#EDBC9C" id="svg_123"/>
      <polygon fill="#DEA888" id="svg_124" points="53.94700622558594,54.875 45.44700622558594,47.135986328125 54.425994873046875,48.803009033203125 "/>
      <path d="m52.092,50.715l0,0c4.354,0.077 8,-3.3 8.182,-6.853l0.379,-8.387c0.228,-4.454 -3.118,-8.286 -7.562,-8.66l0,0c-4.549,-0.383 -9.346,2.927 -9.729,7.476l-0.231,6.749c-0.18,5.218 3.756,9.236 8.961,9.675z" fill="#EDBC9C" id="svg_125"/>
      <path d="m48.166,30.423c1.575,3.798 -3.21,9.62 -3.21,9.62l-5.761,-6.925c-0.001,0 7.856,-5.383 8.971,-2.695z" fill="#412424" id="svg_126"/>
      <g id="svg_127">
       <path d="m39.079,40.019c-0.157,1.865 1.227,3.504 3.092,3.662c1.865,0.157 3.504,-1.227 3.661,-3.092c0.157,-1.865 -1.227,-3.504 -3.092,-3.661c-1.864,-0.159 -3.503,1.226 -3.661,3.091z" fill="#EDBC9C" id="svg_128"/>
       <path d="m43.552,41.407c0,0 0.206,-2.448 -2.167,-2.26" fill="none" id="svg_129" stroke="#1F2326" stroke-linecap="round" stroke-linejoin="round" stroke-miterlimit="10" stroke-width="0.5387"/>
      </g>
      <g id="svg_130">
       <polyline fill="none" id="svg_131" points="55.81500244140625,41.614990234375 55.968994140625,43.125 54.83299255371094,43.170989990234375 " stroke="#1F2326" stroke-linecap="round" stroke-linejoin="round" stroke-miterlimit="10" stroke-width="0.5387"/>
       <path d="m50.628,35.968c0,0 1.881,-0.164 1.902,0.627c0,0 0,0.535 -1.641,0.646c-1.641,0.11 -2.068,-0.013 -2.219,-0.516c-0.152,-0.503 1.076,-0.75 1.958,-0.757z" fill="#1F2326" id="svg_132"/>
       <path d="m58.494,36.176c0,0 -1.553,-0.162 -1.678,0.581c0,0 -0.073,0.503 1.287,0.613c1.36,0.11 1.802,-0.069 1.929,-0.475c0.144,-0.46 -0.8,-0.709 -1.538,-0.719z" fill="#1F2326" id="svg_133"/>
       <path d="m57.385,39.954c-0.013,0.45 0.33,0.826 0.766,0.84c0.436,0.014 0.8,-0.34 0.813,-0.79c0.013,-0.45 -0.329,-0.826 -0.766,-0.84c-0.436,-0.014 -0.8,0.34 -0.813,0.79z" fill="#1F2326" id="svg_134"/>
       <path d="m50.465,39.732c-0.013,0.45 0.329,0.826 0.766,0.84c0.436,0.014 0.8,-0.34 0.813,-0.79c0.013,-0.45 -0.329,-0.826 -0.766,-0.84c-0.435,-0.014 -0.799,0.34 -0.813,0.79z" fill="#1F2326" id="svg_135"/>
       <path d="m56.815,44.735l-5.726,0c0,0 0.905,1.788 3.263,1.779c2.148,-0.007 2.463,-1.779 2.463,-1.779z" fill="#FFFFFF" id="svg_136"/>
      </g>
      <path d="m47.205,30.423c0,0 3.424,5.851 14.408,3.798c0,0 2.67,-5.993 -4.259,-8.18c-6.93,-2.188 -14.898,1.508 -14.898,1.508l0,4.927l4.749,-2.053z" fill="#412424" id="svg_137"/>
     </g>
     <g id="svg_138">
      <g id="svg_139">
       <path d="m56.454,58.018c0,0 9.821,2.329 11.553,15.317l-6.3,5.391l-5.253,-20.708z" fill="#808DFF" id="svg_140"/>
       <g id="svg_141">
        <path d="m72.006,94.803c-0.177,-0.291 -0.064,2.104 -0.172,1.78c0,0 -2.925,-4.972 -7.25,-15.385c-1.106,-2.664 0.385,-10.814 3.26,-11.041c2.111,-0.167 4.618,3.77 5.121,5.827l5.243,13.186l-6.202,5.633z" fill="#EDBC9C" id="svg_142"/>
        <path d="m73.62,90.323l20.437,-11.019l1.882,2.079l-16.512,16.377c-2.398,2.406 -6.473,1.593 -7.765,-1.548l0,0c-0.895,-2.177 -0.063,-4.681 1.958,-5.889z" fill="#EDBC9C" id="svg_143"/>
        <path d="m101.709,78.454c1.374,1.815 0.663,4.668 -1.588,6.371c-2.251,1.703 -5.189,1.612 -6.563,-0.203c-1.374,-1.815 -0.663,-4.668 1.588,-6.371c2.251,-1.703 5.189,-1.612 6.563,0.203z" fill="#EDBC9C" id="svg_144"/>
       </g>
      </g>
      <g id="svg_145">
       <g id="svg_146">
        <g id="svg_147">
         <path d="m36.26,97.764c0.829,0.016 25.04,-0.28 25.04,-0.28l-1.802,-35.76l-17.901,3.048l-5.337,32.992z" fill="#FFFFFF" id="svg_148"/>
         <path d="m41.597,57.649l7.183,-1.259l5.305,0.957l4.102,8.332c0,0 1.227,3.814 -5.311,4.419c-6.538,0.605 -11.078,-3.995 -12.167,-6.84c-1.09,-2.846 0.888,-5.609 0.888,-5.609z" fill="#EDBC9C" id="svg_149"/>
        </g>
        <g id="svg_150">
         <path d="m54.085,57.347c0,0 5.376,11.324 4.043,23.017c-1.332,11.694 5.31,24.05 5.31,24.05l0,-32.265c0,0 -0.07,-13.466 -9.353,-14.802z" fill="#808DFF" id="svg_151"/>
         <path d="m62.766,67.107c0,0 2.192,5.383 0.673,14.431" fill="none" id="svg_152" stroke="#5F73E8" stroke-miterlimit="10" stroke-width="0.764"/>
        </g>
        <path d="m41.597,57.649c0,0 16.376,20.229 -9.038,48.331l2.684,-46.65l6.354,-1.681z" fill="#808DFF" id="svg_153"/>
       </g>
       <g id="svg_154">
        <g id="svg_155">
         <g id="svg_156">
          <path d="m35.286,59.315c0,0 -12.081,2.553 -12.675,26.91l14.457,-1.365l1.98,-19.807l-3.762,-5.738z" fill="#808DFF" id="svg_157"/>
          <path d="m36.679,90.803c0,0 3.15,-3.086 0.389,-5.944c0,0 -10.297,-1.601 -16.298,2.167c0,0 -2.512,4.286 0.698,6.608c0,0.001 4.326,-2.831 15.211,-2.831z" fill="#9CABFF" id="svg_158"/>
          <line fill="none" id="svg_159" stroke="#5F73E8" stroke-miterlimit="10" stroke-width="0.764" x1="37.068" x2="39.46" y1="84.86" y2="70.101"/>
         </g>
         <g id="svg_160">
          <path d="m36.679,90.803l22.472,2.831l-1.249,4.419l-30.375,0.75c-3.043,0.075 -5.654,-2.153 -6.059,-5.169l0,0c0,0.001 6.728,-4.835 15.211,-2.831z" fill="#EDBC9C" id="svg_161"/>
          <path d="m68.003,95.927c-0.117,2.805 -3.031,4.961 -6.508,4.816c-3.478,-0.145 -6.202,-2.536 -6.085,-5.341c0.117,-2.805 3.031,-4.961 6.508,-4.816c3.478,0.145 6.202,2.536 6.085,5.341z" fill="#EDBC9C" id="svg_162"/>
         </g>
        </g>
        <g id="svg_163">
         <path d="m37.285,93.313l23.99,0l0,-2.707l-23.99,0c-0.747,0 -1.353,0.606 -1.353,1.354l0,0c0,0.747 0.605,1.353 1.353,1.353z" fill="#1C2123" id="svg_164"/>
         <g id="svg_165">
          <path d="m58.117,93.313l34.442,0c1.831,0 3.438,-1.221 3.928,-2.984l6.199,-22.27c0.548,-1.969 -0.933,-3.918 -2.976,-3.918l-31.85,0c-1.222,0 -2.291,0.824 -2.601,2.006l-7.142,27.166z" fill="#2E353A" id="svg_166"/>
          <path d="m78.798,79.973c0,1.661 1.347,3.007 3.008,3.007s3.007,-1.346 3.007,-3.007c0,-1.661 -1.346,-3.007 -3.007,-3.007s-3.008,1.346 -3.008,3.007z" fill="#FFFFFF" id="svg_167"/>
         </g>
        </g>
       </g>
      </g>
     </g>
    </g>
    <g id="svg_168">
     <g id="svg_170">
      <g id="svg_171">
       <g id="svg_172"/>
       <g id="svg_174"/>
      </g>
      <g id="svg_178">
       <g id="svg_179">
        <g id="svg_180"/>
       </g>
       <g id="svg_183"/>
      </g>
     </g>
    </g>
   </g>
   <g id="svg_186">
    <g id="svg_187">
     <g id="svg_188">
      <g id="svg_189">
       <g id="svg_191">
        <g id="svg_192"/>
        <g id="svg_195"/>
       </g>
      </g>
      <g id="svg_199">
       <g id="svg_201">
        <g id="svg_202"/>
        <g id="svg_205"/>
       </g>
      </g>
      <g id="svg_209"/>
     </g>
     <g id="svg_212">
      <g id="svg_213"/>
      <g id="svg_216"/>
      <g id="svg_219">
       <g id="svg_220">
        <g id="svg_222"/>
       </g>
       <g id="svg_225">
        <g id="svg_226"/>
        <g id="svg_229"/>
       </g>
      </g>
     </g>
     <g id="svg_232">
      <g id="svg_233"/>
     </g>
     <g id="svg_239">
      <g id="svg_246"/>
      <g id="svg_254">
       <g id="svg_255"/>
      </g>
     </g>
    </g>
    <g id="svg_259">
     <g id="svg_261">
      <g id="svg_262">
       <g id="svg_264"/>
      </g>
     </g>
    </g>
   </g>
   <g id="svg_268">
    <g id="svg_269">
     <g id="svg_270">
      <g id="svg_271">
       <g id="svg_275"/>
      </g>
      <g id="svg_281">
       <g id="svg_282">
        <g id="svg_283">
         <g id="svg_284">
          <g id="svg_286"/>
         </g>
         <g id="svg_292"/>
        </g>
        <g id="svg_295">
         <g id="svg_296">
          <g id="svg_298"/>
         </g>
         <g id="svg_304"/>
        </g>
       </g>
       <g id="svg_307">
        <g id="svg_308">
         <g id="svg_309">
          <g id="svg_310"/>
         </g>
        </g>
        <g id="svg_315"/>
        <g id="svg_318">
         <g id="svg_319"/>
         <g id="svg_322">
          <g id="svg_323"/>
          <g id="svg_326"/>
         </g>
        </g>
       </g>
       <g id="svg_329">
        <g id="svg_336"/>
        <g id="svg_343"/>
       </g>
      </g>
     </g>
     <g id="svg_350">
      <g id="svg_351">
       <g id="svg_352"/>
       <g id="svg_355"/>
       <g id="svg_358">
        <g id="svg_360"/>
       </g>
      </g>
      <g id="svg_363"/>
     </g>
    </g>
    <g id="svg_368">
     <g id="svg_370"/>
    </g>
   </g>
  </g>
  <g id="DESIGNED_BY_FREEPIK">
   <g id="svg_373">
    <g id="XMLID_319_">
     <g id="XMLID_338_"/>
    </g>
    <g id="svg_374"/>
   </g>
  </g>
 </g>
</svg>