<?xml version="1.0"?>
<svg width="180" height="140" xmlns="http://www.w3.org/2000/svg" xmlns:svg="http://www.w3.org/2000/svg">
 <g class="layer">
  <title>Layer 1</title>
  <g id="BACKGROUND"/>
  <g id="OBJECTS">
   <g id="svg_2">
    <g id="svg_3">
     <g id="svg_5"/>
     <g id="svg_20"/>
     <g id="svg_35"/>
    </g>
    <g id="svg_48">
     <g id="svg_51"/>
     <g id="svg_56"/>
     <g id="svg_70">
      <g id="svg_74"/>
      <g id="svg_76"/>
      <g id="svg_78"/>
      <g id="svg_80"/>
     </g>
     <g id="svg_82">
      <g id="svg_86"/>
      <g id="svg_88"/>
      <g id="svg_90"/>
      <g id="svg_92"/>
     </g>
     <g id="svg_95"/>
     <g id="svg_100"/>
    </g>
    <g id="svg_104">
     <g id="svg_116"/>
     <g id="svg_118"/>
     <g id="svg_126"/>
     <g id="svg_135"/>
    </g>
    <g id="svg_146">
     <g id="svg_155"/>
     <g id="svg_157"/>
     <g id="svg_165"/>
     <g id="svg_175"/>
     <g id="svg_180">
      <g id="svg_184"/>
      <g id="svg_186"/>
      <g id="svg_188"/>
      <g id="svg_190"/>
     </g>
     <g id="svg_192">
      <g id="svg_196"/>
      <g id="svg_198"/>
      <g id="svg_200"/>
      <g id="svg_202"/>
     </g>
    </g>
    <g id="svg_205">
     <g id="svg_206"/>
     <g id="svg_209"/>
    </g>
    <g id="svg_213">
     <g id="svg_214">
      <g id="svg_216"/>
     </g>
     <g id="svg_219">
      <g id="svg_221"/>
     </g>
     <g id="svg_224">
      <g id="svg_226"/>
     </g>
     <g id="svg_228"/>
    </g>
   </g>
   <g id="svg_231">
    <g id="svg_232">
     <g id="svg_233">
      <g id="svg_234">
       <path d="m76.933,96.939l-6.102,30.954l-0.712,0l4.014,-32.367c0,0 2.8,2.119 2.8,1.413z" fill="#2D294C" id="svg_235"/>
       <path d="m81.83,96.939l-6.102,30.954l-0.712,0l4.014,-32.367c0.001,0 2.8,2.119 2.8,1.413z" fill="#2D294C" id="svg_236"/>
      </g>
      <g id="svg_237">
       <path d="m98.866,96.939l6.102,30.954l0.712,0l-4.014,-32.367c-0.001,0 -2.8,2.119 -2.8,1.413z" fill="#2D294C" id="svg_238"/>
       <path d="m93.968,96.939l6.102,30.954l0.712,0l-4.014,-32.367c0,0 -2.8,2.119 -2.8,1.413z" fill="#2D294C" id="svg_239"/>
      </g>
     </g>
     <path d="m103.771,77.118l-3.711,-11.503c-1.121,-3.475 -4.355,-5.83 -8.007,-5.83l-1.946,0l-1.864,0l-4.498,0c-3.651,0 -6.886,2.355 -8.007,5.83l-3.711,11.503l-0.748,0c-1.852,0 -3.353,1.501 -3.353,3.353l0,5.309c0,6.848 5.551,12.399 12.399,12.399l7.917,0l1.864,0l5.365,0c6.848,0 12.399,-5.551 12.399,-12.399l0,-5.309c0,-1.852 -1.501,-3.353 -3.353,-3.353l-0.746,0z" fill="#9292AA" id="svg_240"/>
     <g id="svg_241">
      <g id="svg_242">
       <rect fill="#2D294C" height="30.178" id="svg_243" transform="matrix(0.374 -0.9274 0.9274 0.374 31.4581 419.478)" width="0.486" x="310.463764" y="-78.932512"/>
      </g>
      <g id="svg_244">
       <rect fill="#2D294C" height="0.486" id="svg_245" transform="matrix(0.9271 -0.3748 0.3748 0.9271 -46.1495 135.573)" width="30.178" x="119.351398" y="23.748997"/>
      </g>
     </g>
     <path d="m103.942,77.118l-0.171,0l-3.711,-11.503c-1.121,-3.475 -4.355,-5.83 -8.007,-5.83l-1.946,0l-1.864,0l-4.498,0c-3.651,0 -6.886,2.355 -8.007,5.83l-3.711,11.503l-0.01,0l0,12.579c0,4.58 3.633,8.447 8.213,8.482c0.032,0 0.064,0 0.096,0l7.917,0l1.864,0l5.365,0c0.088,0 0.176,-0.001 0.264,-0.003c4.577,-0.096 8.206,-3.907 8.206,-8.485l0,-12.573z" fill="#CFCCDF" id="svg_246"/>
     <path d="m70.573,93.419c2.27,2.894 5.79,4.76 9.753,4.76l7.917,0l1.864,0l5.365,0c3.963,0 7.483,-1.866 9.753,-4.76l-34.652,0z" fill="#9292AA" id="svg_247"/>
    </g>
    <g id="svg_248">
     <g id="svg_249"/>
     <g id="svg_251"/>
     <g id="svg_253"/>
     <g id="svg_255"/>
     <g id="svg_260"/>
     <g id="svg_264"/>
     <g id="svg_268">
      <g id="svg_269"/>
      <g id="svg_271"/>
      <g id="svg_273"/>
      <g id="svg_275"/>
      <g id="svg_277"/>
      <g id="svg_279"/>
      <g id="svg_281"/>
      <g id="svg_283"/>
      <g id="svg_285"/>
      <g id="svg_287"/>
      <g id="svg_289"/>
      <g id="svg_291"/>
      <g id="svg_293"/>
      <g id="svg_295"/>
      <g id="svg_297"/>
     </g>
    </g>
    <g id="svg_299">
     <g id="svg_300"/>
     <g id="svg_308"/>
     <g id="svg_313"/>
     <g id="svg_315">
      <g id="svg_319"/>
      <g id="svg_321"/>
      <g id="svg_323"/>
      <g id="svg_325"/>
     </g>
     <g id="svg_329"/>
    </g>
    <g id="svg_345">
     <polygon fill="#D7914E" id="svg_346" points="105.989990234375,118.74800109863281 106.02999877929688,125.25300598144531 106.30999755859375,127.28900146484375 109.94100952148438,127.48800659179688 110.94900512695312,126.00199890136719 110.30099487304688,117.8699951171875 "/>
     <rect fill="#2D294C" height="15.55" id="svg_347" width="21.717" x="76.059" y="78.354"/>
     <path d="m68.326,77.424c-0.902,-0.263 -1.782,-0.6 -2.629,-1.005c-1.383,-0.661 -2.848,-1.829 -2.702,-3.355c0.096,-1.006 0.995,-3.146 1.705,-3.865c1.915,-1.94 7.913,-13.124 9.945,-14.721c0.888,-0.698 9.498,-4.708 9.904,-2.435c0.077,0.43 -0.507,3.353 -0.629,3.772c-0.972,3.357 -3.12,4.862 -5.219,7.656c-1.819,2.422 -4.013,4.552 -5.728,7.048c0.632,1.036 1.411,2.12 2.385,2.843c3.033,2.25 6.071,4.491 9.116,6.724c-0.729,0.863 -1.156,1.903 -1.474,2.987c-5.004,-1.626 -9.621,-4.173 -14.674,-5.649z" fill="#D7914E" id="svg_348"/>
     <path d="m103.921,77.424c0.902,-0.263 1.782,-0.6 2.629,-1.005c1.383,-0.661 2.848,-1.829 2.702,-3.355c-0.096,-1.006 -0.995,-3.146 -1.705,-3.865c-1.915,-1.94 -7.913,-13.124 -9.945,-14.721c-0.888,-0.698 -9.498,-4.708 -9.904,-2.435c-0.077,0.43 0.507,3.353 0.629,3.772c0.972,3.357 3.12,4.862 5.219,7.656c1.819,2.422 4.013,4.552 5.728,7.048c-0.632,1.036 -1.411,2.12 -2.385,2.843c-3.033,2.25 -6.071,4.491 -9.116,6.724c0.729,0.863 1.156,1.903 1.474,2.987c5.004,-1.626 9.621,-4.173 14.674,-5.649z" fill="#D7914E" id="svg_349"/>
     <path d="m92.764,74.378c0,1.592 -1.348,2.882 -3.011,2.882c-1.663,0 -3.011,-1.29 -3.011,-2.882c0,-1.592 1.348,-2.882 3.011,-2.882c1.663,-0.001 3.011,1.29 3.011,2.882z" fill="#A0616B" id="svg_350"/>
     <g id="svg_351">
      <path d="m104.514,121.741l-0.079,-1.984c-0.668,-10.878 -2.243,-21.139 -3.588,-24.237c-1.649,-1.06 -7.638,-2.66 -13.028,-3.43l-4.808,-0.687l1.373,-9.615l4.808,0.687c4.352,0.622 14.889,2.484 18.744,6.338c1.096,1.095 4.427,1.511 6.193,30.349l-0.116,2.139l-9.499,0.44zm-3.804,-26.502l0,0l0,0z" fill="#2D294C" id="svg_352"/>
     </g>
     <g id="svg_353">
      <path d="m75.533,124.821l-0.868,-4.778c-0.162,-0.892 -2.938,-16.203 -3.432,-23.825c-0.527,-8.127 4.433,-11.396 7.13,-11.99l4.743,-1.044l2.088,9.485l-4.083,0.899c-0.103,0.258 -0.261,0.86 -0.186,2.021c0.458,7.067 3.258,22.503 3.296,22.716l0.869,4.778l-9.557,1.738z" fill="#2D294C" id="svg_354"/>
     </g>
     <path d="m99.534,58.12c-0.233,-3.776 -5.585,-7.346 -12.204,-7.346c-6.619,0 -12.365,1.538 -13.534,5.16c-0.585,1.811 2.424,21.23 2.401,22.425c-0.075,3.845 -0.257,5.671 -0.257,5.671l21.993,0.187c0,0 0.083,-2.617 -0.09,-5.498c-0.11,-1.83 1.812,-18.636 1.691,-20.599z" fill="#D7914E" id="svg_355"/>
     <path d="m86.871,53.229l-0.575,0c-1.537,0 -2.783,-1.246 -2.783,-2.783l0,-8.716l6.141,0l0,8.716c0,1.537 -1.246,2.783 -2.783,2.783z" fill="#EFAFC0" id="svg_356"/>
     <path d="m83.514,44.073c0.813,2.108 2.586,5.356 6.14,6.155l0,-8.499l-5.55,0l-0.59,0.259l0,2.085z" fill="#D98E9D" id="svg_357" opacity="0.5"/>
     <path d="m88.507,31.913l-1.4,0.188c-2.784,0.374 -4.738,2.933 -4.364,5.717l0.64,4.77c0.378,2.815 2.966,4.791 5.781,4.413l2.485,-0.334c2.154,-0.289 3.665,-2.269 3.376,-4.423l-0.801,-5.967c-0.373,-2.783 -2.933,-4.737 -5.717,-4.364z" fill="#EFAFC0" id="svg_358"/>
     <path d="m85.319,41.204c0.201,1.498 -0.85,2.874 -2.348,3.075c-1.497,0.201 -2.874,-0.85 -3.075,-2.348c-0.201,-1.498 0.85,-2.874 2.348,-3.075c1.497,-0.201 2.874,0.85 3.075,2.348z" fill="#EFAFC0" id="svg_359"/>
     <path d="m82.98,39.098c0.342,0.948 0.611,1.922 0.805,2.91c0.098,-0.121 0.301,-0.197 0.452,-0.161" fill="none" id="svg_360"/>
     <path d="m79.405,36.266c0.064,0.203 0.171,0.389 0.277,0.573c0.448,0.779 0.895,1.558 1.343,2.337c0.533,-0.343 1.228,-0.251 1.862,-0.25c0.168,0.696 0.253,1.418 0.279,2.134c0.23,-0.047 0.468,-0.064 0.703,-0.052c-0.081,-0.824 -0.109,-1.66 -0.135,-2.487c0.207,-0.25 0.524,-0.439 0.753,-0.669c-0.368,-0.4 -0.571,-0.938 -0.615,-1.479c-0.056,-0.687 0.26,-1.236 0.6,-1.836c0.34,-0.6 0.843,-1.132 1.487,-1.379c1.383,-0.531 2.731,-1.006 4.207,-0.891c0.582,0.045 1.221,0.088 1.716,0.399c0.765,-0.017 1.343,-0.848 1.326,-1.613c-0.017,-0.765 -0.473,-1.453 -1.003,-2.004c-0.374,-0.389 -0.797,-0.736 -1.275,-0.987c-0.595,-0.313 -1.261,-0.47 -1.928,-0.554c-1.757,-0.221 -3.575,0.058 -5.185,0.796c0.294,0.06 0.505,0.162 0.799,0.222c-0.498,0.05 -0.985,0.172 -1.483,0.222c-0.53,0.053 -1.065,0.108 -1.57,0.277c-0.922,0.309 -1.687,0.985 -2.259,1.772c-0.572,0.787 -0.969,1.684 -1.345,2.581c-0.163,0.389 -0.326,0.803 -0.264,1.22c0.051,0.347 0.254,0.652 0.469,0.93c0.272,0.349 0.797,0.732 1.241,0.738z" fill="#2D294C" id="svg_361"/>
     <path d="m90.769,42.967l-2.971,-0.714c0,0 0.493,1.603 1.441,1.755c0.947,0.15 1.53,-1.041 1.53,-1.041z" fill="#FFFFFF" id="svg_362"/>
     <path d="m89.656,38.335c0.04,0.302 -0.171,0.58 -0.473,0.62c-0.302,0.04 -0.58,-0.171 -0.62,-0.473c-0.04,-0.302 0.171,-0.58 0.473,-0.62c0.302,-0.041 0.579,0.171 0.62,0.473z" fill="#2D294C" id="svg_363"/>
     <path d="m93.483,37.821c0.04,0.302 -0.171,0.58 -0.473,0.62c-0.302,0.041 -0.579,-0.171 -0.62,-0.473c-0.04,-0.302 0.171,-0.58 0.473,-0.62c0.301,-0.041 0.579,0.171 0.62,0.473z" fill="#2D294C" id="svg_364"/>
     <polygon fill="#FFFFFF" id="svg_365" points="86.84201049804688,52.28199768066406 82.7130126953125,51.47599792480469 83.10000610351562,54.055999755859375 87.48599243164062,60.11799621582031 91.87100219726562,54.82899475097656 89.93600463867188,51.08900451660156 "/>
     <path d="m83.382,49.978c0,0 3.161,1.747 6.287,0l0.359,1.527l-0.773,3.712l-2.315,-2.559l-1.996,2.689l-2.102,-3.483l0.54,-1.886z" fill="#EFF2F7" id="svg_366"/>
     <g id="svg_367">
      <path d="m77.129,132.034c0,0 -0.359,1.321 -0.166,2.048c0.193,0.728 0.945,2.038 2.77,2.094c1.825,0.057 4.203,0.173 4.061,-4.926l-6.665,0.784z" fill="#3F3E66" id="svg_368"/>
      <path d="m79.816,123.896c0.162,-0.288 -0.354,-2.445 1.152,-2.371c1.506,0.074 1.678,0.793 1.567,1.853c-0.111,1.06 -0.807,5.388 -0.807,5.388l-2.112,0.193l0.2,-5.063z" fill="#2D294C" id="svg_369"/>
      <path d="m79.5,122.394c0,0 -0.642,3.727 -0.709,3.871c-0.067,0.145 -1.992,5.885 -1.714,6.789c0.2,0.651 1.325,1.583 3.732,1.492c1.852,-0.07 3.219,-1.763 2.945,-3.596c-0.243,-1.626 -0.549,-4.7 -0.547,-4.746c0.005,-0.089 -0.298,-3.866 -0.298,-3.866s-1.764,2.646 -1.904,5.904l-0.65,-0.035c-0.001,0.001 0.162,-5.996 -0.855,-5.813z" fill="#2D294C" id="svg_370"/>
      <g id="svg_371">
       <path d="m82.319,124.27c-0.062,0 -0.124,-0.024 -0.172,-0.072c-1.036,-1.056 -2.13,-0.157 -2.176,-0.118c-0.101,0.085 -0.252,0.073 -0.339,-0.028c-0.086,-0.101 -0.074,-0.252 0.027,-0.338c0.506,-0.432 1.748,-0.955 2.831,0.148c0.093,0.095 0.092,0.247 -0.003,0.34c-0.046,0.045 -0.107,0.068 -0.168,0.068z" fill="#3F3E66" id="svg_372"/>
      </g>
      <g id="svg_373">
       <path d="m82.161,125.502c-0.062,0 -0.124,-0.024 -0.172,-0.072c-1.036,-1.055 -2.13,-0.157 -2.176,-0.118c-0.101,0.086 -0.252,0.073 -0.339,-0.028c-0.086,-0.101 -0.074,-0.252 0.027,-0.338c0.506,-0.432 1.747,-0.956 2.831,0.147c0.093,0.095 0.092,0.247 -0.003,0.34c-0.046,0.046 -0.107,0.069 -0.168,0.069z" fill="#3F3E66" id="svg_374"/>
      </g>
      <g id="svg_375">
       <path d="m82.003,126.735c-0.062,0 -0.124,-0.024 -0.172,-0.072c-1.037,-1.055 -2.13,-0.157 -2.176,-0.118c-0.101,0.085 -0.252,0.073 -0.339,-0.028c-0.086,-0.102 -0.074,-0.252 0.027,-0.338c0.505,-0.432 1.747,-0.956 2.831,0.147c0.093,0.095 0.091,0.247 -0.003,0.34c-0.046,0.046 -0.107,0.069 -0.168,0.069z" fill="#3F3E66" id="svg_376"/>
      </g>
      <g id="svg_377">
       <path d="m81.845,127.968c-0.062,0 -0.124,-0.024 -0.172,-0.072c-1.036,-1.055 -2.13,-0.157 -2.176,-0.118c-0.101,0.086 -0.252,0.073 -0.338,-0.028c-0.086,-0.101 -0.074,-0.252 0.027,-0.338c0.505,-0.432 1.747,-0.956 2.831,0.147c0.093,0.095 0.092,0.247 -0.003,0.34c-0.048,0.046 -0.109,0.069 -0.169,0.069z" fill="#3F3E66" id="svg_378"/>
      </g>
     </g>
     <g id="svg_379">
      <path d="m109.648,124.917c0,0 -0.906,-1.496 -0.021,-1.749c0.885,-0.253 1.434,0.241 1.434,0.241l2.491,2.198l1.365,1.652l-1.831,-0.581l-3.438,-1.761z" fill="#2D294C" id="svg_380"/>
      <path d="m106.055,124.579c0,0 0.944,1.669 1.662,1.261c0.406,-0.231 0.985,-1.755 1.573,-1.617c0.588,0.138 2.961,1.476 3.837,1.794c0.876,0.318 -2.173,-2.574 -2.173,-2.574s2.521,1.913 3.304,2.2c0.784,0.286 7.197,1.07 7.591,2.986l0.064,1.261c0,0 -1.789,2.128 -6.783,1.15c-4.995,-0.978 -7.744,-0.907 -8.65,-1.133c-0.907,-0.227 -1.107,-5.191 -0.425,-5.328z" fill="#2D294C" id="svg_381"/>
      <path d="m116.03,130.259c-2.331,-0.074 -6.343,-1.231 -7.828,-1.202c-0.855,0.017 -1.737,-0.166 -2.331,-0.325c0.14,0.637 0.344,1.108 0.609,1.174c0.907,0.226 3.656,0.155 8.65,1.133c4.995,0.978 6.783,-1.15 6.783,-1.15l-0.064,-1.261c-0.423,1.066 -3.488,1.705 -5.819,1.631z" fill="#3F3E66" id="svg_382"/>
      <g id="svg_383">
       <path d="m111.068,126.016c-0.039,0.005 -0.08,0.001 -0.119,-0.014c-0.124,-0.048 -0.186,-0.187 -0.138,-0.311c0.017,-0.045 0.434,-1.105 1.172,-1.355c0.297,-0.102 0.611,-0.059 0.908,0.123c0.113,0.069 0.149,0.217 0.08,0.33c-0.069,0.113 -0.217,0.149 -0.331,0.079c-0.176,-0.107 -0.34,-0.133 -0.503,-0.078c-0.437,0.148 -0.782,0.825 -0.877,1.073c-0.032,0.086 -0.108,0.142 -0.192,0.153z" fill="#3F3E66" id="svg_384"/>
      </g>
      <g id="svg_385">
       <path d="m111.893,126.603c-0.039,0.005 -0.08,0.001 -0.119,-0.014c-0.124,-0.048 -0.186,-0.187 -0.138,-0.311c0.017,-0.045 0.434,-1.105 1.172,-1.355c0.296,-0.102 0.611,-0.059 0.908,0.123c0.113,0.069 0.149,0.217 0.08,0.33c-0.069,0.113 -0.217,0.149 -0.331,0.079c-0.176,-0.107 -0.34,-0.133 -0.503,-0.078c-0.437,0.148 -0.782,0.825 -0.878,1.073c-0.032,0.086 -0.107,0.142 -0.191,0.153z" fill="#3F3E66" id="svg_386"/>
      </g>
      <g id="svg_387">
       <path d="m112.861,126.952c-0.039,0.005 -0.08,0.001 -0.119,-0.014c-0.124,-0.048 -0.186,-0.187 -0.138,-0.311c0.017,-0.045 0.434,-1.105 1.172,-1.355c0.297,-0.1 0.612,-0.058 0.908,0.124c0.113,0.069 0.149,0.217 0.079,0.33c-0.069,0.113 -0.217,0.149 -0.331,0.079c-0.175,-0.108 -0.339,-0.133 -0.502,-0.078c-0.435,0.147 -0.781,0.824 -0.878,1.073c-0.032,0.085 -0.107,0.141 -0.191,0.152z" fill="#3F3E66" id="svg_388"/>
      </g>
      <g id="svg_389">
       <path d="m113.865,127.252c-0.039,0.005 -0.08,0.001 -0.119,-0.014c-0.124,-0.048 -0.186,-0.187 -0.138,-0.311c0.017,-0.045 0.434,-1.105 1.172,-1.355c0.297,-0.103 0.611,-0.058 0.908,0.123c0.113,0.069 0.149,0.217 0.08,0.33c-0.069,0.113 -0.217,0.149 -0.331,0.079c-0.175,-0.107 -0.339,-0.133 -0.503,-0.078c-0.437,0.148 -0.782,0.825 -0.877,1.073c-0.033,0.086 -0.108,0.141 -0.192,0.153z" fill="#3F3E66" id="svg_390"/>
      </g>
     </g>
     <path d="m85.292,83.099c-0.866,-0.069 -1.783,-0.265 -2.389,-0.888c-0.606,-0.622 0.539,-1.594 1.239,-2.108c0.968,0.44 2.076,-0.063 3.133,-0.182c0.641,-0.072 1.289,0.003 1.926,0.105c0.817,0.131 1.636,0.311 2.374,0.685c0.738,0.374 1.394,0.96 1.713,1.723c0.075,0.179 -0.024,0.35 -0.217,0.353c-0.194,0.003 -0.358,-0.133 -0.51,-0.253c-0.477,-0.376 -1.026,-0.66 -1.608,-0.834c-0.105,-0.031 -0.185,0.144 -0.086,0.191c1.456,0.689 1.801,1.611 1.775,1.694c-0.028,0.09 -0.139,0.124 -0.234,0.122c-0.171,-0.003 -0.452,-0.259 -0.594,-0.354c-0.603,-0.399 -1.146,-0.472 -1.146,-0.472s-0.619,0.036 0.899,0.801c0.187,0.094 0.381,0.221 0.443,0.421c0.011,0.035 0.017,0.073 0.01,0.109c-0.008,0.043 -0.035,0.081 -0.067,0.112c-0.098,0.093 -0.242,0.124 -0.376,0.112c-0.134,-0.011 -0.262,-0.06 -0.388,-0.109c-0.618,-0.237 -1.235,-0.475 -1.853,-0.712c0.163,0.103 1.282,0.662 1.403,0.813c0.047,0.059 0.092,0.131 0.077,0.204c-0.023,0.109 -0.157,0.146 -0.268,0.157c-0.743,0.074 -2.45,-0.542 -3.146,-0.813c-0.695,-0.269 -1.365,-0.818 -2.11,-0.877z" fill="#EFAFC0" id="svg_391"/>
     <g id="svg_392">
      <path d="m87.677,40.908c-1.249,0 -2.339,-0.926 -2.51,-2.197c-0.09,-0.671 0.086,-1.337 0.497,-1.875c0.411,-0.538 1.006,-0.884 1.677,-0.974c1.386,-0.186 2.663,0.79 2.849,2.174c0.186,1.385 -0.79,2.662 -2.175,2.849c-0.113,0.016 -0.226,0.023 -0.338,0.023zm0.003,-4.826c-0.102,0 -0.203,0.007 -0.306,0.021c-0.606,0.081 -1.145,0.394 -1.516,0.88c-0.372,0.487 -0.531,1.089 -0.45,1.695c0.169,1.252 1.324,2.137 2.575,1.966c1.252,-0.168 2.134,-1.324 1.966,-2.576c-0.154,-1.148 -1.139,-1.986 -2.269,-1.986z" fill="#2D294C" id="svg_393"/>
     </g>
     <g id="svg_394">
      <path d="m93.067,40.184c-0.552,0 -1.086,-0.179 -1.532,-0.52c-0.538,-0.411 -0.884,-1.006 -0.974,-1.677c-0.186,-1.385 0.789,-2.663 2.174,-2.849c1.384,-0.184 2.663,0.79 2.849,2.175c0.09,0.671 -0.086,1.336 -0.497,1.874c-0.411,0.538 -1.006,0.884 -1.678,0.974c-0.114,0.015 -0.228,0.023 -0.342,0.023zm0.007,-4.826c-0.102,0 -0.203,0.007 -0.306,0.021c-1.252,0.168 -2.133,1.324 -1.965,2.576c0.082,0.607 0.394,1.145 0.88,1.517c0.488,0.372 1.094,0.532 1.695,0.449c0.607,-0.081 1.146,-0.394 1.517,-0.88c0.372,-0.487 0.531,-1.088 0.45,-1.695c-0.156,-1.15 -1.141,-1.988 -2.271,-1.988z" fill="#2D294C" id="svg_395"/>
     </g>
     <g id="svg_396">
      <rect fill="#2D294C" height="0.242" id="svg_397" transform="matrix(0.9187 -0.3949 0.3949 0.9187 -20.6624 136.864)" width="2.505" x="133.483205" y="-48.057873"/>
     </g>
     <g id="svg_398">
      <path d="m90.262,87.938l20.542,0l0,-1.506l-20.542,0c-0.416,0 -0.753,0.337 -0.753,0.753l0,0c0,0.415 0.337,0.753 0.753,0.753z" fill="#A8A5C4" id="svg_399"/>
      <path d="m92.011,87.938l19.809,0c0.876,0 1.643,-0.59 1.867,-1.436l3.496,-13.172c0.325,-1.226 -0.599,-2.428 -1.867,-2.428l-17.297,0c-0.876,0 -1.643,0.589 -1.867,1.436l-4.141,15.6z" fill="#CFCCDF" id="svg_400"/>
      <path d="m115.315,70.902c1.268,0 2.193,1.202 1.867,2.428l-3.496,13.172c-0.108,0.406 -0.342,0.751 -0.652,1.002l-12.041,-16.601l14.322,0l0,-0.001z" fill="#CFCCDF" id="svg_401"/>
      <path d="m103.676,80.586c-0.217,0.859 0.324,1.556 1.208,1.556c0.884,0 1.776,-0.696 1.993,-1.556c0.217,-0.859 -0.324,-1.556 -1.208,-1.556c-0.884,0 -1.776,0.697 -1.993,1.556z" fill="#FFFFFF" id="svg_402"/>
     </g>
    </g>
    <g id="svg_403">
     <path d="m126.823,42.216l-2.049,-3.268c0,0 0.64,-1.378 -0.06,-2.56c-0.699,-1.182 -1.769,-3.318 -2.053,-3.046s0.287,2.342 0.287,2.342s-1.883,-3.209 -3.159,-3.401c-1.276,-0.193 1.325,3.309 1.325,3.309s-2.943,-3.063 -3.122,-2.455s1.769,3.318 1.933,3.488c0.164,0.17 -2.237,-2.215 -2.411,-1.829c-0.175,0.386 2.694,4.394 3.295,4.906c0.602,0.513 5.102,3.607 5.102,3.607l0.912,-1.093z" fill="#EFAFC0" id="svg_404"/>
     <path d="m152.166,57.969l-0.035,-0.084l-9.44,-2.281l-1.141,4.72c-0.16,0.665 -4.486,17.513 -4.967,25.197c-0.286,4.586 11.326,34.167 12.018,35.98l0.099,1.43l-1.833,2.344c0,0 1.511,0.448 3.066,0.122c1.555,-0.326 2.9,-1.025 2.9,-1.025l-1.123,-4.079c0,0 -3.448,-21.082 -4.531,-27.574c-0.438,-2.627 -1.976,-4.794 -1.954,-5.541c0.256,-4.092 3.397,-11.984 5.887,-17.698c-0.193,5.235 -0.476,12.31 -0.735,16.441c-0.282,4.514 4.782,36.055 4.784,37.293l0.006,-0.012l-0.008,0.041l-2.354,2.58c0,0 1.511,0.448 3.066,0.122c1.555,-0.326 2.573,-1.911 2.573,-1.911s1.925,-36.981 2.142,-40.473c0.463,-7.413 0.469,-20.196 0.469,-20.737l0,-4.856l-8.889,0l0,0.001z" fill="#EFAFC0" id="svg_405"/>
     <path d="m141.222,34.996c-0.081,1.39 0.046,2.794 -0.178,4.168c-0.224,1.374 -0.881,2.774 -2.104,3.438c-1.778,0.965 -3.985,0.055 -5.662,-1.077c-1.677,-1.132 -3.352,-2.546 -5.374,-2.628c-2.174,-0.088 -4.267,1.672 -4.554,3.829c-0.278,2.09 1.001,4.141 2.706,5.38c1.706,1.239 3.786,1.824 5.818,2.387c2.631,0.728 5.511,1.443 8.015,0.354c1.623,-0.706 2.845,-2.08 3.982,-3.437c2.616,-3.121 5.148,-6.53 5.932,-10.527c0.536,-2.731 0.007,-8.52 -3.222,-9.671c-3.815,-1.359 -5.207,5.17 -5.359,7.784z" fill="#5387C4" id="svg_406"/>
     <path d="m163.17,56.037l0.452,10.385l-2.032,17.61l-25.06,-1.355l0.249,-2.57c0.734,-7.587 2.437,-15.048 5.067,-22.202l0.846,-2.301l20.478,0.433z" fill="#DC614B" id="svg_407"/>
     <path d="m166.608,27.766c-1.695,-1.277 -2.558,-3.404 -2.871,-5.503c-0.313,-2.1 -0.152,-4.237 -0.217,-6.359c-0.046,-1.511 -0.218,-3.057 -0.898,-4.407c-0.68,-1.35 -1.955,-2.479 -3.46,-2.629c-0.924,-0.092 -1.869,0.183 -2.779,-0.006c-0.198,0.405 -0.265,0.944 0.064,1.251c0.33,0.307 0.747,0.518 1.037,0.863c0.396,0.469 0.501,1.116 0.519,1.729c0.082,2.845 -1.37,5.539 -1.477,8.384c-0.052,1.381 0.227,2.787 0.901,3.993c0.674,1.206 1.758,2.199 3.058,2.666c1.841,0.659 4.217,0.449 6.123,0.018z" fill="#2D294C" id="svg_408"/>
     <path d="m148.76,25.747l1.141,-0.145c0,0 1.821,1.121 2.287,1.037c1.09,-0.195 1.289,-0.589 1.289,-0.589s1.077,-0.719 1.563,-0.685c6.145,0.436 5.828,4.114 6.358,6.234c0.928,3.716 -2.395,9.115 -2.395,9.115s4.126,13.236 3.942,15.548l-11.556,1.9c-3.17,0.521 -6.421,-0.151 -9.124,-1.887l0,0l1.264,-11.978l-0.833,-2.272c-1.126,-3.07 -1.414,-6.387 -0.821,-9.603c0.253,-1.368 0.523,-2.637 0.751,-3.252c0.644,-1.736 4.295,-3.189 6.134,-3.423z" fill="#6F9EDE" id="svg_409"/>
     <g id="svg_410">
      <g id="svg_411">
       <path d="m152.026,28.777l0,0c1.696,0 3.07,-1.375 3.07,-3.07l0,-8.061c0,-0.203 -0.165,-0.367 -0.367,-0.367l-5.406,0c-0.203,0 -0.367,0.164 -0.367,0.367l0,8.061c-0.001,1.695 1.374,3.07 3.07,3.07z" fill="#EFAFC0" id="svg_412"/>
       <path d="m155.096,19.621c-0.813,2.108 -2.586,5.356 -6.141,6.155l0,-8.499l5.55,0l0.59,0.259l0,2.085l0.001,0z" fill="#D98E9D" id="svg_413" opacity="0.5"/>
      </g>
      <path d="m147.55,8.2l1.413,0c2.809,0 5.086,2.277 5.086,5.086l0,4.812c0,2.84 -2.302,5.143 -5.143,5.143l-2.507,0c-2.173,0 -3.934,-1.761 -3.934,-3.934l0,-6.021c0,-2.809 2.277,-5.086 5.085,-5.086z" fill="#EFAFC0" id="svg_414"/>
      <circle cx="154.682" cy="16.984" fill="#EFAFC0" id="svg_415" r="2.736"/>
      <path d="m153.984,14.586c-0.213,0.985 -0.35,1.986 -0.41,2.991c-0.114,-0.107 -0.325,-0.155 -0.47,-0.099" fill="none" id="svg_416"/>
      <path d="m145.848,19.027l2.962,-0.753c0,0 -0.472,1.61 -1.418,1.773c-0.947,0.163 -1.544,-1.02 -1.544,-1.02z" fill="#FFFFFF" id="svg_417"/>
      <path d="m146.767,14.676c0,0.305 0.247,0.552 0.552,0.552c0.305,0 0.552,-0.247 0.552,-0.552c0,-0.305 -0.247,-0.552 -0.552,-0.552c-0.305,0 -0.552,0.247 -0.552,0.552z" fill="#2D294C" id="svg_418"/>
      <path d="m142.905,14.676c0,0.305 0.247,0.552 0.552,0.552c0.305,0 0.552,-0.247 0.552,-0.552c0,-0.305 -0.247,-0.552 -0.552,-0.552c-0.305,0 -0.552,0.247 -0.552,0.552z" fill="#2D294C" id="svg_419"/>
      <path d="m151.485,8.973c0,0 -1.112,2.88 0.312,4.687c0.434,0.551 0.784,2.299 0.931,2.984c0.153,0 0.321,-1.654 1.2,-2.207c0.304,-0.195 1.535,-0.114 1.535,-0.114s0.673,-1.691 0.818,-2.126c0.185,-0.554 0.492,-1.063 0.666,-1.62c0.581,-1.859 -0.652,-4.078 -2.537,-4.567c-0.551,-0.143 -1.122,-0.216 -1.691,-0.236c-12.074,-0.429 -10.65,5.234 -10.605,6.527c5.007,0.668 9.371,-3.328 9.371,-3.328z" fill="#2D294C" id="svg_420"/>
     </g>
     <path d="m163.38,57.685c0.802,-0.333 1.613,-0.804 1.996,-1.584c0.383,-0.78 -1.006,-1.349 -1.831,-1.621c-0.785,0.718 -1.993,0.582 -3.035,0.797c-0.632,0.13 -1.225,0.402 -1.799,0.696c-0.736,0.377 -1.46,0.802 -2.046,1.386c-0.586,0.584 -1.028,1.344 -1.095,2.169c-0.016,0.193 0.131,0.325 0.316,0.269c0.185,-0.057 0.299,-0.237 0.407,-0.398c0.337,-0.505 0.771,-0.945 1.27,-1.29c0.091,-0.063 0.221,0.08 0.141,0.155c-1.171,1.105 -1.214,2.089 -1.164,2.16c0.055,0.077 0.171,0.074 0.26,0.044c0.161,-0.056 0.349,-0.387 0.455,-0.52c0.45,-0.566 0.944,-0.804 0.944,-0.804s0.6,-0.157 -0.607,1.04c-0.148,0.147 -0.293,0.329 -0.291,0.538c0,0.037 0.006,0.074 0.024,0.106c0.021,0.038 0.059,0.066 0.098,0.085c0.122,0.058 0.268,0.043 0.392,-0.009c0.124,-0.052 0.231,-0.139 0.335,-0.223c0.514,-0.417 1.027,-0.834 1.541,-1.251c-0.123,0.149 -1.014,1.026 -1.082,1.207c-0.026,0.07 -0.047,0.153 -0.009,0.218c0.056,0.096 0.195,0.09 0.303,0.066c0.73,-0.16 2.161,-1.274 2.74,-1.746c0.58,-0.473 1.047,-1.203 1.737,-1.49z" fill="#EFAFC0" id="svg_421"/>
     <path d="m163.052,29.686c2.636,2.75 5.273,5.5 7.909,8.25c2.443,2.548 5.045,5.473 5.038,9.003c-0.005,2.685 -1.557,5.122 -3.318,7.148c-1.249,1.437 -2.708,2.804 -4.535,3.338c-1.827,0.535 -4.086,-0.005 -5.022,-1.663c-1.015,-1.796 -0.176,-4.044 0.782,-5.871c0.958,-1.827 2.065,-3.848 1.519,-5.837c-0.388,-1.416 -1.538,-2.469 -2.585,-3.498c-2.957,-2.908 -5.618,-6.529 -6.459,-10.668c-0.357,-1.759 -0.916,-3.975 1.325,-3.962c1.979,0.012 4.113,2.473 5.346,3.76z" fill="#6F9EDE" id="svg_422"/>
     <path d="m148.515,121.53l-1.375,3.425l-3.653,1.661c-1.819,0.738 -1.155,1.634 -1.155,1.634l11.019,-0.762l-1.007,-6.275l-3.829,0.317z" fill="#2D294C" id="svg_423"/>
     <path d="m152.805,125.823l-3.653,1.661c-1.819,0.738 -1.155,1.634 -1.155,1.634l10.017,-0.755l0.776,-6.717l-3.943,-0.403l0.317,1.9l-2.359,2.68z" fill="#2D294C" id="svg_424"/>
    </g>
    <g id="svg_425">
     <path d="m24.854,55.079c4.549,0.076 9.099,0.153 13.648,0.229c1.546,0.026 3.103,0.051 4.624,-0.227c3.221,-0.588 11.197,-8.695 13.435,-10.265c0.838,0.743 1.646,1.432 2.484,2.174c-2.347,4.501 -3.586,7.027 -6.704,11.032c-0.932,1.197 -1.938,2.402 -3.293,3.082c-1.054,0.528 -2.246,0.7 -3.417,0.839c-4.995,0.59 -10.047,0.696 -15.063,0.317c-0.661,-0.05 -1.359,-0.122 -1.888,-0.522c-0.461,-0.348 -0.723,-0.894 -0.967,-1.418c-1.162,-2.485 -1.699,-2.754 -2.859,-5.241z" fill="#EDA956" id="svg_426"/>
     <path d="m27.581,35.701c0,0 -7.203,0.647 -9.146,7.365c-1.943,6.718 1.781,9.308 1.781,9.308l1.376,0.081l0.648,-1.295l0.486,1.295l8.579,0.971l0.567,-0.648l0.405,0.648c0,0 4.209,-1.295 3.966,-4.694c-0.243,-3.399 -0.081,-5.018 -1.133,-7.041c-1.052,-2.023 -2.914,-4.452 -2.914,-4.452l-4.615,-1.538z" fill="#563238" id="svg_427"/>
     <g id="svg_428">
      <path d="m35.733,93.744l4.374,34.965l0.712,0l-2.287,-36.243c0.001,0.001 -2.799,1.917 -2.799,1.278z" fill="#2D294C" id="svg_429"/>
      <path d="m45.446,92.449l16.677,36.26l0.712,0l-14.589,-37.538c0,0.001 -2.8,1.917 -2.8,1.278z" fill="#2D294C" id="svg_430"/>
      <path d="m23.661,92.449l-16.677,36.26l-0.712,0l14.589,-37.538c0.001,0.001 2.8,1.917 2.8,1.278z" fill="#2D294C" id="svg_431"/>
      <path d="m31.755,93.744l-4.374,34.965l-0.712,0l2.287,-36.243c-0.001,0.001 2.799,1.917 2.799,1.278z" fill="#2D294C" id="svg_432"/>
      <g id="svg_433">
       <rect fill="#2D294C" height="0.485" id="svg_434" transform="matrix(0.4675 -0.884 0.884 0.4675 -9.1243 344.263)" width="19.406" x="230.048508" y="-67.858469"/>
      </g>
      <g id="svg_435">
       <rect fill="#2D294C" height="22.897" id="svg_436" transform="matrix(0.6928 -0.7211 0.7211 0.6928 -43.4672 259.313)" width="0.485" x="174.469854" y="-57.134714"/>
      </g>
      <g id="svg_437">
       <rect fill="#2D294C" height="0.486" id="svg_438" transform="matrix(0.6874 -0.7263 0.7263 0.6874 -50.5056 245.956)" width="24.505" x="141.987717" y="-45.752078"/>
      </g>
      <g id="svg_439">
       <polygon fill="#2D294C" id="svg_440" points="30.022003173828125,107.79200744628906 20.957000732421875,92.89999389648438 21.37298583984375,92.64700317382812 30.43798828125,107.53900146484375 "/>
      </g>
      <path d="m18.899,55.868c0,0 10.684,-2.59 14.245,19.101l0.56,2.427c0.816,3.538 3.897,6.093 7.525,6.241l4.676,0.191c3.044,0.124 5.701,2.099 6.697,4.978l1.262,3.645l2.586,0c0,0 -0.971,5.18 -6.151,5.18c-5.18,0 -17.155,0 -17.155,0l-11.007,0c0,0 -9.065,0.648 -10.684,-11.331c-1.619,-11.979 -7.447,-31.08 7.446,-30.432z" fill="#5A8ECC" id="svg_441"/>
      <path d="m59.2,124.768l2.354,2.58l3.653,1.66c1.819,0.738 1.155,1.635 1.155,1.635l-10.017,-0.755l-0.757,-3.442l3.612,-1.678z" fill="#2D294C" id="svg_442"/>
      <path d="m55.342,116.368l3.858,8.4l2.354,2.58c0,0 -1.511,0.448 -3.066,0.122c-1.555,-0.326 -2.9,-1.025 -2.9,-1.025l-4.08,-6.569l-0.47,-3.327l4.304,-0.181z" fill="#EFAFC0" id="svg_443"/>
      <polygon fill="#EFAFC0" id="svg_444" points="46.364990234375,119.7550048828125 43.110992431640625,122.447998046875 43.89599609375,126.93699645996094 46.701995849609375,128.0590057373047 41.989013671875,127.94700622558594 39.519989013671875,121.55099487304688 42.217010498046875,118.19599914550781 "/>
      <path d="m46.702,128.059c0,0 0.991,0.013 1.331,0.391c0.34,0.377 0,0.944 0,0.944l-7.615,-0.213l-2.581,-7.406l1.683,-0.224l2.469,6.396l4.713,0.112z" fill="#2D294C" id="svg_445"/>
      <g id="svg_446">
       <path d="m47.267,120.77l-7.793,-3.96l1.98,-3.896c3.337,-6.565 6.933,-14.445 8.429,-18.673c-4.337,-0.627 -12.462,-1.279 -19.433,-1.635l-4.365,-0.222l0.446,-8.73l4.365,0.222c23.576,1.202 25.569,2.862 26.639,3.754c3.192,2.661 2.048,6.952 -2.774,17.706c-2.604,5.804 -5.396,11.306 -5.513,11.538l-1.981,3.896zm5.396,-25.969l0,0l0,0z" fill="#9D3542" id="svg_447"/>
      </g>
      <path d="m38.418,93.753l-8.349,0.463c-4.148,0 -9.259,-3.453 -9.259,-7.601l-0.124,-2.204l16.226,-1.472l1.506,10.814z" fill="#DC614B" id="svg_448"/>
      <g id="svg_449">
       <path d="m49.849,123.164l-0.339,-4.357c-0.68,-8.739 -2.282,-19.42 -3.618,-21.755c-1.457,-1.115 -7.727,-2.828 -13.42,-3.641l-4.326,-0.618l1.236,-8.653l4.327,0.618c4.303,0.615 14.717,2.449 18.469,6.2c3.528,3.527 5.236,16.723 6.047,27.171l0.339,4.357l-8.715,0.678zm-4.032,-26.233l0,0l0,0z" fill="#DC614B" id="svg_450"/>
      </g>
      <path d="m30.622,55.47c0,0 -6.79,-0.266 -7.257,-0.224c-1.32,0.117 -3.098,0.479 -3.965,0.973c-1.958,1.114 -2.138,2.935 -2.305,4.379c-0.226,1.95 4.137,11.453 4.137,11.453l-1.692,8.038c0,0 -0.26,3.501 0,5.711l17.557,-2.327l-1.423,-6.738l-1.457,-8.822c0,0 2.514,-4.672 0.89,-6.394c-3.922,-4.16 -4.485,-6.049 -4.485,-6.049z" fill="#FFCD8B" id="svg_451"/>
      <g id="svg_452">
       <path d="m26.036,58.4l0,0c-1.314,0 -2.378,-1.065 -2.378,-2.379l0,-10.132c0,-0.157 0.127,-0.285 0.285,-0.285l4.188,0c0.157,0 0.285,0.127 0.285,0.285l0,10.132c-0.001,1.314 -1.066,2.379 -2.38,2.379z" fill="#EFAFC0" id="svg_453"/>
       <path d="m23.658,51.307c0.63,1.633 2.003,4.149 4.757,4.768l0,-10.471l-4.3,0l-0.457,0.201l0,5.502z" fill="#D98E9D" id="svg_454" opacity="0.5"/>
      </g>
      <path d="m30.232,37.823l-1.413,0c-2.809,0 -5.086,2.277 -5.086,5.086l0,4.812c0,2.84 2.302,5.143 5.143,5.143l0.659,0c3.193,0 5.782,-2.589 5.782,-5.782l0,-4.173c0,-2.809 -2.277,-5.086 -5.085,-5.086z" fill="#EFAFC0" id="svg_455"/>
      <path d="m25.836,46.607c0,1.511 -1.225,2.736 -2.736,2.736s-2.736,-1.225 -2.736,-2.736c0,-1.511 1.225,-2.736 2.736,-2.736s2.736,1.225 2.736,2.736z" fill="#EFAFC0" id="svg_456"/>
      <path d="m23.798,42.265c0.213,0.985 0.35,1.986 0.41,2.991c0.114,-0.106 0.325,-0.155 0.47,-0.099" fill="none" id="svg_457"/>
      <path d="m31.935,48.65l-2.962,-0.753c0,0 0.472,1.61 1.418,1.773c0.946,0.163 1.544,-1.02 1.544,-1.02z" fill="#FFFFFF" id="svg_458"/>
      <circle cx="30.464" cy="44.299" fill="#2D294C" id="svg_459" r="0.552"/>
      <path d="m34.877,44.299c0,0.305 -0.247,0.552 -0.552,0.552c-0.305,0 -0.552,-0.247 -0.552,-0.552c0,-0.305 0.247,-0.552 0.552,-0.552c0.305,0 0.552,0.247 0.552,0.552z" fill="#2D294C" id="svg_460"/>
      <path d="m11.452,86.3c-0.717,-5.305 -2.256,-12.005 -2.459,-17.77l0,0l5.055,14.542c1.072,3.084 3.979,5.151 7.244,5.151l3.238,0c2.861,0 5.44,1.725 6.532,4.37l2.081,5.039l-11.007,0c0,-0.001 -9.065,0.647 -10.684,-11.332z" fill="#6F9EDE" id="svg_461"/>
      <path d="m23.69,89.615c-0.835,-0.239 -1.695,-0.614 -2.165,-1.344c-0.47,-0.73 0.845,-1.456 1.633,-1.82c0.862,0.623 2.047,0.35 3.107,0.443c0.643,0.057 1.263,0.258 1.867,0.485c0.774,0.29 1.542,0.63 2.191,1.142c0.649,0.513 1.176,1.218 1.337,2.029c0.038,0.19 -0.093,0.338 -0.283,0.303c-0.19,-0.035 -0.324,-0.201 -0.449,-0.349c-0.393,-0.463 -0.874,-0.851 -1.41,-1.136c-0.097,-0.052 -0.21,0.105 -0.122,0.17c1.29,0.964 1.446,1.936 1.404,2.013c-0.046,0.083 -0.161,0.093 -0.254,0.073c-0.167,-0.037 -0.391,-0.344 -0.512,-0.464c-0.512,-0.51 -1.03,-0.69 -1.03,-0.69s-0.614,-0.087 0.722,0.964c0.164,0.129 0.329,0.293 0.351,0.5c0.004,0.037 0.003,0.075 -0.012,0.109c-0.017,0.041 -0.051,0.072 -0.088,0.096c-0.114,0.072 -0.262,0.074 -0.391,0.036c-0.129,-0.038 -0.245,-0.111 -0.359,-0.184c-0.558,-0.355 -1.116,-0.71 -1.675,-1.066c0.14,0.133 1.125,0.903 1.214,1.075c0.034,0.067 0.065,0.147 0.034,0.216c-0.044,0.102 -0.183,0.112 -0.294,0.101c-0.743,-0.075 -2.293,-1.017 -2.922,-1.421c-0.628,-0.404 -1.176,-1.076 -1.894,-1.281z" fill="#EFAFC0" id="svg_462"/>
      <path d="m19.326,56.368c0,0 -7.823,5.529 -9.727,14.837c-1.904,9.307 4.138,16.479 11.694,17.018l2.888,-1.432c0,0 -9.08,-9.595 -8.445,-12.768c0.635,-3.173 5.921,-10.222 5.921,-10.222s-0.521,-8.173 -2.331,-7.433z" fill="#FFCD8B" id="svg_463"/>
     </g>
     <path d="m24.036,44.593c0,0 7.272,-1.157 8.422,-4.988c0,0 0.668,3.521 2.86,3.303c0,0 1.247,-7.694 -6.037,-7.37c-6.637,0.295 -7.568,3.739 -7.313,8.592c0,0.001 1.62,-0.817 2.068,0.463z" fill="#563238" id="svg_464"/>
     <path d="m23.442,47.902c0,0.278 -0.226,0.504 -0.504,0.504c-0.278,0 -0.504,-0.226 -0.504,-0.504c0,-0.278 0.226,-0.504 0.504,-0.504c0.278,0 0.504,0.225 0.504,0.504z" fill="#FFFFFF" id="svg_465"/>
     <path d="m56.561,44.817l2.687,-2.855c0,0 -0.068,-2.583 0.408,-4.01c0.476,-1.427 0.476,-1.427 0.476,-1.427s0.748,-0.136 0.68,0.952c-0.068,1.088 0.068,2.039 0.068,2.039s3.195,-5.709 4.01,-5.981c0.816,-0.272 -0.748,3.127 -0.952,3.602c-0.204,0.476 2.651,-3.058 2.991,-2.923c0.34,0.136 -0.884,2.515 -2.039,3.806c0,0 2.787,-2.447 3.127,-2.243c0.34,0.204 -1.555,2.214 -1.555,2.214s2.708,-2.37 0.671,0.776c-0.866,1.337 -4.962,4.554 -5.437,4.758c-0.476,0.204 -2.651,3.466 -2.651,3.466l-2.484,-2.174z" fill="#EFAFC0" id="svg_466"/>
    </g>
   </g>
   <g id="svg_467"/>
   <g id="svg_480">
    <g id="svg_481"/>
    <g id="svg_500">
     <g id="svg_502"/>
     <g id="svg_517"/>
     <g id="svg_532"/>
    </g>
    <g id="svg_545">
     <g id="svg_553"/>
     <g id="svg_555"/>
    </g>
    <g id="svg_570">
     <g id="svg_572"/>
    </g>
    <g id="svg_591">
     <g id="svg_592"/>
    </g>
   </g>
   <g id="svg_596">
    <g id="svg_597">
     <g id="svg_600"/>
     <g id="svg_612"/>
     <g id="svg_621">
      <g id="svg_625"/>
      <g id="svg_627"/>
      <g id="svg_629"/>
      <g id="svg_631"/>
     </g>
     <g id="svg_633">
      <g id="svg_637"/>
      <g id="svg_639"/>
      <g id="svg_641"/>
      <g id="svg_643"/>
     </g>
    </g>
    <g id="svg_645">
     <g id="svg_646">
      <g id="svg_647"/>
      <g id="svg_650"/>
     </g>
     <g id="svg_656">
      <g id="svg_657"/>
      <g id="svg_660"/>
     </g>
     <g id="svg_666">
      <g id="svg_671"/>
      <g id="svg_677"/>
      <g id="svg_680"/>
      <g id="svg_691"/>
     </g>
     <g id="svg_700">
      <g id="svg_704"/>
      <g id="svg_706"/>
      <g id="svg_709"/>
     </g>
     <g id="svg_730"/>
    </g>
    <g id="svg_735">
     <g id="svg_736"/>
    </g>
   </g>
   <g id="svg_740">
    <g id="svg_742">
     <g id="svg_743"/>
     <g id="svg_746"/>
     <g id="svg_749"/>
     <g id="svg_752"/>
     <g id="svg_755"/>
    </g>
    <g id="svg_758"/>
   </g>
   <g id="svg_761">
    <g id="svg_762"/>
    <g id="svg_765"/>
   </g>
   <g id="svg_768">
    <g id="svg_771">
     <g id="svg_772"/>
     <g id="svg_774"/>
    </g>
    <g id="svg_776">
     <g id="svg_777"/>
     <g id="svg_779"/>
    </g>
    <g id="svg_781">
     <g id="svg_782"/>
     <g id="svg_784"/>
    </g>
    <g id="svg_786">
     <g id="svg_787"/>
     <g id="svg_789"/>
    </g>
    <g id="svg_791">
     <g id="svg_792"/>
     <g id="svg_794"/>
    </g>
    <g id="svg_796">
     <g id="svg_797"/>
     <g id="svg_799"/>
    </g>
    <g id="svg_801">
     <g id="svg_802"/>
     <g id="svg_804"/>
    </g>
    <g id="svg_806">
     <g id="svg_807"/>
     <g id="svg_809"/>
    </g>
    <g id="svg_811"/>
   </g>
  </g>
  <g id="DESIGNED_BY_FREEPIK">
   <g id="svg_814">
    <g id="XMLID_319_">
     <g id="XMLID_338_"/>
    </g>
    <g id="svg_815"/>
   </g>
  </g>
 </g>
</svg>